<svg xmlns="http://www.w3.org/2000/svg" xmlns:xlink="http://www.w3.org/1999/xlink" width="500" zoomAndPan="magnify" viewBox="0 0 375 374.999991" height="500" preserveAspectRatio="xMidYMid meet" version="1.0"><defs><g/></defs><g fill="#e91514" fill-opacity="1"><g transform="translate(9.69141, 203.999987)"><g><path d="M 18.921875 1.0625 C 15.628906 1.0625 12.394531 0.125 9.21875 -1.75 L 4.71875 0.53125 L 3.546875 0.53125 L 3.546875 -13.09375 L 4.71875 -13.09375 L 9.28125 -3.234375 C 12.207031 -1.148438 15.5625 -0.109375 19.34375 -0.109375 C 22.457031 -0.109375 25.03125 -0.925781 27.0625 -2.5625 C 29.09375 -4.207031 30.109375 -6.515625 30.109375 -9.484375 C 30.109375 -11.640625 29.453125 -13.34375 28.140625 -14.59375 C 26.835938 -15.851562 24.71875 -16.851562 21.78125 -17.59375 L 12.984375 -19.875 C 9.910156 -20.6875 7.59375 -22.070312 6.03125 -24.03125 C 4.476562 -26 3.703125 -28.320312 3.703125 -31 C 3.703125 -33.4375 4.1875 -35.597656 5.15625 -37.484375 C 6.132812 -39.378906 7.5625 -40.847656 9.4375 -41.890625 C 11.3125 -42.929688 13.535156 -43.453125 16.109375 -43.453125 C 19.328125 -43.453125 22.207031 -42.90625 24.75 -41.8125 L 28.625 -43.453125 L 29.78125 -43.453125 L 29.78125 -32.640625 L 28.625 -32.640625 L 24.796875 -40.390625 C 22.148438 -41.660156 19.273438 -42.296875 16.171875 -42.296875 C 13.085938 -42.296875 10.660156 -41.507812 8.890625 -39.9375 C 7.128906 -38.363281 6.25 -36.285156 6.25 -33.703125 C 6.25 -31.796875 6.875 -30.296875 8.125 -29.203125 C 9.382812 -28.109375 11.234375 -27.242188 13.671875 -26.609375 L 23.15625 -24.109375 C 26.226562 -23.335938 28.515625 -22.003906 30.015625 -20.109375 C 31.523438 -18.222656 32.28125 -15.351562 32.28125 -11.5 C 32.28125 -7.582031 31.066406 -4.507812 28.640625 -2.28125 C 26.222656 -0.0507812 22.984375 1.0625 18.921875 1.0625 Z M 18.921875 1.0625 "/></g></g></g><g fill="#000000" fill-opacity="1"><g transform="translate(44.988283, 203.999987)"><g><path d="M 7.109375 -33.609375 C 6.117188 -33.609375 5.269531 -33.953125 4.5625 -34.640625 C 3.851562 -35.328125 3.5 -36.164062 3.5 -37.15625 C 3.5 -38.144531 3.84375 -38.972656 4.53125 -39.640625 C 5.21875 -40.316406 6.078125 -40.65625 7.109375 -40.65625 C 8.054688 -40.65625 8.863281 -40.316406 9.53125 -39.640625 C 10.207031 -38.972656 10.546875 -38.144531 10.546875 -37.15625 C 10.546875 -36.164062 10.207031 -35.328125 9.53125 -34.640625 C 8.863281 -33.953125 8.054688 -33.609375 7.109375 -33.609375 Z M 1.484375 0 L 1.484375 -1.0625 L 5.1875 -1.59375 L 5.1875 -25.8125 L 1.484375 -26.34375 L 1.484375 -27.40625 L 10.5 -27.40625 L 10.5 -1.59375 L 14.203125 -1.0625 L 14.203125 0 Z M 1.484375 0 "/></g></g></g><g fill="#000000" fill-opacity="1"><g transform="translate(60.30304, 203.999987)"><g><path d="M 1.0625 0 L 1.0625 -1.0625 L 5.03125 -1.59375 L 5.03125 -40.8125 L 1.0625 -41.34375 L 1.0625 -42.40625 L 10.328125 -42.40625 L 10.328125 -1.59375 L 14.046875 -1.0625 L 14.046875 0 Z M 1.0625 0 "/></g></g></g><g fill="#000000" fill-opacity="1"><g transform="translate(75.458816, 203.999987)"><g><path d="M 10.171875 0.53125 C 7.910156 0.53125 6.054688 -0.0546875 4.609375 -1.234375 C 3.160156 -2.421875 2.4375 -4.179688 2.4375 -6.515625 C 2.4375 -9.835938 3.832031 -12.195312 6.625 -13.59375 C 9.414062 -14.988281 12.648438 -15.6875 16.328125 -15.6875 L 19.875 -15.6875 L 19.875 -19.765625 C 19.875 -21.609375 19.671875 -23.03125 19.265625 -24.03125 C 18.859375 -25.039062 18.226562 -25.75 17.375 -26.15625 C 16.53125 -26.5625 15.382812 -26.765625 13.9375 -26.765625 C 12.28125 -26.765625 11.046875 -26.4375 10.234375 -25.78125 C 9.421875 -25.125 9.015625 -24.25 9.015625 -23.15625 C 9.015625 -22.132812 9.507812 -21.460938 10.5 -21.140625 C 10.5 -20.265625 10.160156 -19.488281 9.484375 -18.8125 C 8.816406 -18.144531 8.023438 -17.8125 7.109375 -17.8125 C 6.117188 -17.8125 5.320312 -18.082031 4.71875 -18.625 C 4.113281 -19.175781 3.8125 -20.015625 3.8125 -21.140625 C 3.8125 -23.191406 4.835938 -24.835938 6.890625 -26.078125 C 8.941406 -27.316406 11.503906 -27.9375 14.578125 -27.9375 C 21.640625 -27.9375 25.171875 -24.859375 25.171875 -18.703125 L 25.171875 -3.546875 C 25.171875 -2.773438 25.335938 -2.1875 25.671875 -1.78125 C 26.015625 -1.375 26.503906 -1.171875 27.140625 -1.171875 C 27.734375 -1.171875 28.207031 -1.375 28.5625 -1.78125 C 28.914062 -2.1875 29.09375 -2.738281 29.09375 -3.4375 L 30.203125 -3.4375 C 30.203125 -2.207031 29.804688 -1.238281 29.015625 -0.53125 C 28.222656 0.175781 27.117188 0.53125 25.703125 0.53125 C 24.078125 0.53125 22.707031 0.0625 21.59375 -0.875 C 20.476562 -1.8125 19.90625 -3.269531 19.875 -5.25 C 19.03125 -3.445312 17.734375 -2.03125 15.984375 -1 C 14.234375 0.0195312 12.296875 0.53125 10.171875 0.53125 Z M 13.09375 -1.796875 C 14.039062 -1.796875 15.019531 -2.078125 16.03125 -2.640625 C 17.039062 -3.210938 17.894531 -4.035156 18.59375 -5.109375 C 19.300781 -6.191406 19.726562 -7.492188 19.875 -9.015625 L 19.875 -14.515625 L 16.328125 -14.515625 C 13.429688 -14.515625 11.265625 -13.867188 9.828125 -12.578125 C 8.398438 -11.296875 7.6875 -9.488281 7.6875 -7.15625 C 7.6875 -5.207031 8.144531 -3.828125 9.0625 -3.015625 C 9.976562 -2.203125 11.320312 -1.796875 13.09375 -1.796875 Z M 13.09375 -1.796875 "/></g></g></g><g fill="#000000" fill-opacity="1"><g transform="translate(105.505404, 203.999987)"><g><path d="M 1.4375 -1.0625 L 5.140625 -1.59375 L 5.140625 -25.859375 L 1.4375 -26.390625 L 1.4375 -27.453125 L 10.4375 -27.453125 L 10.4375 -21.734375 C 11.75 -23.640625 13.285156 -25.148438 15.046875 -26.265625 C 16.816406 -27.378906 18.726562 -27.9375 20.78125 -27.9375 C 23.320312 -27.9375 25.320312 -27.296875 26.78125 -26.015625 C 28.25 -24.742188 28.984375 -22.859375 28.984375 -20.359375 L 28.984375 -1.59375 L 32.703125 -1.0625 L 32.703125 0 L 20.515625 0 L 20.515625 -1.0625 L 23.6875 -1.59375 L 23.6875 -20.25 C 23.6875 -22.082031 23.316406 -23.5 22.578125 -24.5 C 21.835938 -25.507812 20.691406 -26.015625 19.140625 -26.015625 C 17.503906 -26.015625 15.9375 -25.421875 14.4375 -24.234375 C 12.9375 -23.054688 11.601562 -21.601562 10.4375 -19.875 L 10.4375 -1.59375 L 13.625 -1.0625 L 13.625 0 L 1.4375 0 Z M 1.4375 -1.0625 "/></g></g></g><g fill="#000000" fill-opacity="1"><g transform="translate(139.15546, 203.999987)"><g><path d="M 1.0625 0 L 1.0625 -1.0625 L 4.765625 -1.59375 L 4.765625 -40.8125 L 1.0625 -41.34375 L 1.0625 -42.40625 L 10.0625 -42.40625 L 10.0625 -15.21875 L 22.203125 -25.171875 L 17.59375 -26.390625 L 17.59375 -27.453125 L 27.5625 -27.453125 L 27.5625 -26.390625 L 24.171875 -25.171875 L 15.375 -17.96875 L 27.765625 -1.53125 L 30.640625 -1.0625 L 30.640625 0 L 18.234375 0 L 18.234375 -1.0625 L 21.40625 -1.59375 L 11.453125 -14.734375 L 10.0625 -13.5625 L 10.0625 -1.59375 L 13.25 -1.0625 L 13.25 0 Z M 1.0625 0 "/></g></g></g><g fill="#000000" fill-opacity="1"><g transform="translate(169.096064, 203.999987)"><g><path d="M 10.171875 0.53125 C 7.910156 0.53125 6.054688 -0.0546875 4.609375 -1.234375 C 3.160156 -2.421875 2.4375 -4.179688 2.4375 -6.515625 C 2.4375 -9.835938 3.832031 -12.195312 6.625 -13.59375 C 9.414062 -14.988281 12.648438 -15.6875 16.328125 -15.6875 L 19.875 -15.6875 L 19.875 -19.765625 C 19.875 -21.609375 19.671875 -23.03125 19.265625 -24.03125 C 18.859375 -25.039062 18.226562 -25.75 17.375 -26.15625 C 16.53125 -26.5625 15.382812 -26.765625 13.9375 -26.765625 C 12.28125 -26.765625 11.046875 -26.4375 10.234375 -25.78125 C 9.421875 -25.125 9.015625 -24.25 9.015625 -23.15625 C 9.015625 -22.132812 9.507812 -21.460938 10.5 -21.140625 C 10.5 -20.265625 10.160156 -19.488281 9.484375 -18.8125 C 8.816406 -18.144531 8.023438 -17.8125 7.109375 -17.8125 C 6.117188 -17.8125 5.320312 -18.082031 4.71875 -18.625 C 4.113281 -19.175781 3.8125 -20.015625 3.8125 -21.140625 C 3.8125 -23.191406 4.835938 -24.835938 6.890625 -26.078125 C 8.941406 -27.316406 11.503906 -27.9375 14.578125 -27.9375 C 21.640625 -27.9375 25.171875 -24.859375 25.171875 -18.703125 L 25.171875 -3.546875 C 25.171875 -2.773438 25.335938 -2.1875 25.671875 -1.78125 C 26.015625 -1.375 26.503906 -1.171875 27.140625 -1.171875 C 27.734375 -1.171875 28.207031 -1.375 28.5625 -1.78125 C 28.914062 -2.1875 29.09375 -2.738281 29.09375 -3.4375 L 30.203125 -3.4375 C 30.203125 -2.207031 29.804688 -1.238281 29.015625 -0.53125 C 28.222656 0.175781 27.117188 0.53125 25.703125 0.53125 C 24.078125 0.53125 22.707031 0.0625 21.59375 -0.875 C 20.476562 -1.8125 19.90625 -3.269531 19.875 -5.25 C 19.03125 -3.445312 17.734375 -2.03125 15.984375 -1 C 14.234375 0.0195312 12.296875 0.53125 10.171875 0.53125 Z M 13.09375 -1.796875 C 14.039062 -1.796875 15.019531 -2.078125 16.03125 -2.640625 C 17.039062 -3.210938 17.894531 -4.035156 18.59375 -5.109375 C 19.300781 -6.191406 19.726562 -7.492188 19.875 -9.015625 L 19.875 -14.515625 L 16.328125 -14.515625 C 13.429688 -14.515625 11.265625 -13.867188 9.828125 -12.578125 C 8.398438 -11.296875 7.6875 -9.488281 7.6875 -7.15625 C 7.6875 -5.207031 8.144531 -3.828125 9.0625 -3.015625 C 9.976562 -2.203125 11.320312 -1.796875 13.09375 -1.796875 Z M 13.09375 -1.796875 "/></g></g></g><g fill="#e91514" fill-opacity="1"><g transform="translate(211.816397, 203.999987)"><g><path d="M 17.96875 1.0625 L 2.703125 -40.484375 L -1.53125 -41.234375 L -1.53125 -42.40625 L 13.984375 -42.40625 L 13.984375 -41.234375 L 9.015625 -40.59375 L 20.671875 -8.84375 L 32.125 -38.84375 L 26.015625 -41.234375 L 26.015625 -42.40625 L 37.421875 -42.40625 L 37.421875 -41.234375 L 33.546875 -38.90625 L 18.390625 1.0625 Z M 17.96875 1.0625 "/></g></g></g><g fill="#000000" fill-opacity="1"><g transform="translate(247.910144, 203.999987)"><g><path d="M 7.109375 -33.609375 C 6.117188 -33.609375 5.269531 -33.953125 4.5625 -34.640625 C 3.851562 -35.328125 3.5 -36.164062 3.5 -37.15625 C 3.5 -38.144531 3.84375 -38.972656 4.53125 -39.640625 C 5.21875 -40.316406 6.078125 -40.65625 7.109375 -40.65625 C 8.054688 -40.65625 8.863281 -40.316406 9.53125 -39.640625 C 10.207031 -38.972656 10.546875 -38.144531 10.546875 -37.15625 C 10.546875 -36.164062 10.207031 -35.328125 9.53125 -34.640625 C 8.863281 -33.953125 8.054688 -33.609375 7.109375 -33.609375 Z M 1.484375 0 L 1.484375 -1.0625 L 5.1875 -1.59375 L 5.1875 -25.8125 L 1.484375 -26.34375 L 1.484375 -27.40625 L 10.5 -27.40625 L 10.5 -1.59375 L 14.203125 -1.0625 L 14.203125 0 Z M 1.484375 0 "/></g></g></g><g fill="#000000" fill-opacity="1"><g transform="translate(263.224902, 203.999987)"><g><path d="M 10.171875 0.53125 C 7.910156 0.53125 6.054688 -0.0546875 4.609375 -1.234375 C 3.160156 -2.421875 2.4375 -4.179688 2.4375 -6.515625 C 2.4375 -9.835938 3.832031 -12.195312 6.625 -13.59375 C 9.414062 -14.988281 12.648438 -15.6875 16.328125 -15.6875 L 19.875 -15.6875 L 19.875 -19.765625 C 19.875 -21.609375 19.671875 -23.03125 19.265625 -24.03125 C 18.859375 -25.039062 18.226562 -25.75 17.375 -26.15625 C 16.53125 -26.5625 15.382812 -26.765625 13.9375 -26.765625 C 12.28125 -26.765625 11.046875 -26.4375 10.234375 -25.78125 C 9.421875 -25.125 9.015625 -24.25 9.015625 -23.15625 C 9.015625 -22.132812 9.507812 -21.460938 10.5 -21.140625 C 10.5 -20.265625 10.160156 -19.488281 9.484375 -18.8125 C 8.816406 -18.144531 8.023438 -17.8125 7.109375 -17.8125 C 6.117188 -17.8125 5.320312 -18.082031 4.71875 -18.625 C 4.113281 -19.175781 3.8125 -20.015625 3.8125 -21.140625 C 3.8125 -23.191406 4.835938 -24.835938 6.890625 -26.078125 C 8.941406 -27.316406 11.503906 -27.9375 14.578125 -27.9375 C 21.640625 -27.9375 25.171875 -24.859375 25.171875 -18.703125 L 25.171875 -3.546875 C 25.171875 -2.773438 25.335938 -2.1875 25.671875 -1.78125 C 26.015625 -1.375 26.503906 -1.171875 27.140625 -1.171875 C 27.734375 -1.171875 28.207031 -1.375 28.5625 -1.78125 C 28.914062 -2.1875 29.09375 -2.738281 29.09375 -3.4375 L 30.203125 -3.4375 C 30.203125 -2.207031 29.804688 -1.238281 29.015625 -0.53125 C 28.222656 0.175781 27.117188 0.53125 25.703125 0.53125 C 24.078125 0.53125 22.707031 0.0625 21.59375 -0.875 C 20.476562 -1.8125 19.90625 -3.269531 19.875 -5.25 C 19.03125 -3.445312 17.734375 -2.03125 15.984375 -1 C 14.234375 0.0195312 12.296875 0.53125 10.171875 0.53125 Z M 13.09375 -1.796875 C 14.039062 -1.796875 15.019531 -2.078125 16.03125 -2.640625 C 17.039062 -3.210938 17.894531 -4.035156 18.59375 -5.109375 C 19.300781 -6.191406 19.726562 -7.492188 19.875 -9.015625 L 19.875 -14.515625 L 16.328125 -14.515625 C 13.429688 -14.515625 11.265625 -13.867188 9.828125 -12.578125 C 8.398438 -11.296875 7.6875 -9.488281 7.6875 -7.15625 C 7.6875 -5.207031 8.144531 -3.828125 9.0625 -3.015625 C 9.976562 -2.203125 11.320312 -1.796875 13.09375 -1.796875 Z M 13.09375 -1.796875 "/></g></g></g><g fill="#000000" fill-opacity="1"><g transform="translate(293.271489, 203.999987)"><g><path d="M 28.625 -29.9375 C 28.625 -28.5625 28.109375 -27.378906 27.078125 -26.390625 C 26.054688 -25.398438 24.429688 -24.765625 22.203125 -24.484375 C 23.117188 -23.140625 23.578125 -21.300781 23.578125 -18.96875 C 23.578125 -16.21875 22.597656 -14.046875 20.640625 -12.453125 C 18.679688 -10.859375 16.203125 -10.0625 13.203125 -10.0625 C 11.960938 -10.0625 10.832031 -10.171875 9.8125 -10.390625 C 7.539062 -10.242188 6.40625 -9.359375 6.40625 -7.734375 C 6.40625 -6.816406 6.785156 -6.144531 7.546875 -5.71875 C 8.304688 -5.300781 9.519531 -5.09375 11.1875 -5.09375 L 17.125 -5.09375 C 19.976562 -5.09375 22.101562 -4.507812 23.5 -3.34375 C 24.894531 -2.175781 25.59375 -0.175781 25.59375 2.65625 C 25.59375 4.632812 25.085938 6.453125 24.078125 8.109375 C 23.078125 9.765625 21.625 11.078125 19.71875 12.046875 C 17.8125 13.023438 15.53125 13.515625 12.875 13.515625 C 8.882812 13.515625 5.941406 12.910156 4.046875 11.703125 C 2.160156 10.503906 1.21875 8.914062 1.21875 6.9375 C 1.21875 5.738281 1.675781 4.679688 2.59375 3.765625 C 3.507812 2.847656 4.765625 2.390625 6.359375 2.390625 C 6.679688 2.390625 7.335938 2.457031 8.328125 2.59375 C 7.222656 3.757812 6.671875 5.140625 6.671875 6.734375 C 6.671875 8.253906 7.203125 9.578125 8.265625 10.703125 C 9.328125 11.835938 11.0625 12.40625 13.46875 12.40625 C 15.550781 12.40625 17.410156 12.003906 19.046875 11.203125 C 20.691406 10.410156 21.957031 9.378906 22.84375 8.109375 C 23.726562 6.835938 24.171875 5.53125 24.171875 4.1875 C 24.171875 2.707031 23.691406 1.640625 22.734375 0.984375 C 21.785156 0.328125 20.09375 0 17.65625 0 L 11.1875 0 C 8.707031 0 6.835938 -0.484375 5.578125 -1.453125 C 4.328125 -2.429688 3.703125 -3.875 3.703125 -5.78125 C 3.703125 -7.050781 4.066406 -8.171875 4.796875 -9.140625 C 5.523438 -10.109375 6.453125 -10.738281 7.578125 -11.03125 C 4.503906 -12.332031 2.96875 -14.976562 2.96875 -18.96875 C 2.96875 -21.757812 3.9375 -23.953125 5.875 -25.546875 C 7.820312 -27.140625 10.265625 -27.9375 13.203125 -27.9375 C 16.910156 -27.9375 19.59375 -27.15625 21.25 -25.59375 C 22.238281 -25.769531 22.976562 -26.097656 23.46875 -26.578125 C 23.96875 -27.054688 24.21875 -27.597656 24.21875 -28.203125 C 24.21875 -28.765625 24.054688 -29.191406 23.734375 -29.484375 C 23.421875 -29.785156 23.050781 -29.9375 22.625 -29.9375 C 22.625 -30.71875 22.914062 -31.398438 23.5 -31.984375 C 24.082031 -32.566406 24.78125 -32.859375 25.59375 -32.859375 C 26.476562 -32.859375 27.203125 -32.59375 27.765625 -32.0625 C 28.335938 -31.53125 28.625 -30.820312 28.625 -29.9375 Z M 18.609375 -20.296875 C 18.609375 -22.453125 18.15625 -24.113281 17.25 -25.28125 C 16.351562 -26.445312 15.003906 -27.03125 13.203125 -27.03125 C 9.703125 -27.03125 7.953125 -24.785156 7.953125 -20.296875 L 7.953125 -17.703125 C 7.953125 -15.617188 8.382812 -13.972656 9.25 -12.765625 C 10.113281 -11.566406 11.429688 -10.96875 13.203125 -10.96875 C 15.003906 -10.96875 16.351562 -11.566406 17.25 -12.765625 C 18.15625 -13.972656 18.609375 -15.617188 18.609375 -17.703125 Z M 18.609375 -20.296875 "/></g></g></g><g fill="#000000" fill-opacity="1"><g transform="translate(321.622325, 203.999987)"><g><path d="M 28.625 -29.9375 C 28.625 -28.5625 28.109375 -27.378906 27.078125 -26.390625 C 26.054688 -25.398438 24.429688 -24.765625 22.203125 -24.484375 C 23.117188 -23.140625 23.578125 -21.300781 23.578125 -18.96875 C 23.578125 -16.21875 22.597656 -14.046875 20.640625 -12.453125 C 18.679688 -10.859375 16.203125 -10.0625 13.203125 -10.0625 C 11.960938 -10.0625 10.832031 -10.171875 9.8125 -10.390625 C 7.539062 -10.242188 6.40625 -9.359375 6.40625 -7.734375 C 6.40625 -6.816406 6.785156 -6.144531 7.546875 -5.71875 C 8.304688 -5.300781 9.519531 -5.09375 11.1875 -5.09375 L 17.125 -5.09375 C 19.976562 -5.09375 22.101562 -4.507812 23.5 -3.34375 C 24.894531 -2.175781 25.59375 -0.175781 25.59375 2.65625 C 25.59375 4.632812 25.085938 6.453125 24.078125 8.109375 C 23.078125 9.765625 21.625 11.078125 19.71875 12.046875 C 17.8125 13.023438 15.53125 13.515625 12.875 13.515625 C 8.882812 13.515625 5.941406 12.910156 4.046875 11.703125 C 2.160156 10.503906 1.21875 8.914062 1.21875 6.9375 C 1.21875 5.738281 1.675781 4.679688 2.59375 3.765625 C 3.507812 2.847656 4.765625 2.390625 6.359375 2.390625 C 6.679688 2.390625 7.335938 2.457031 8.328125 2.59375 C 7.222656 3.757812 6.671875 5.140625 6.671875 6.734375 C 6.671875 8.253906 7.203125 9.578125 8.265625 10.703125 C 9.328125 11.835938 11.0625 12.40625 13.46875 12.40625 C 15.550781 12.40625 17.410156 12.003906 19.046875 11.203125 C 20.691406 10.410156 21.957031 9.378906 22.84375 8.109375 C 23.726562 6.835938 24.171875 5.53125 24.171875 4.1875 C 24.171875 2.707031 23.691406 1.640625 22.734375 0.984375 C 21.785156 0.328125 20.09375 0 17.65625 0 L 11.1875 0 C 8.707031 0 6.835938 -0.484375 5.578125 -1.453125 C 4.328125 -2.429688 3.703125 -3.875 3.703125 -5.78125 C 3.703125 -7.050781 4.066406 -8.171875 4.796875 -9.140625 C 5.523438 -10.109375 6.453125 -10.738281 7.578125 -11.03125 C 4.503906 -12.332031 2.96875 -14.976562 2.96875 -18.96875 C 2.96875 -21.757812 3.9375 -23.953125 5.875 -25.546875 C 7.820312 -27.140625 10.265625 -27.9375 13.203125 -27.9375 C 16.910156 -27.9375 19.59375 -27.15625 21.25 -25.59375 C 22.238281 -25.769531 22.976562 -26.097656 23.46875 -26.578125 C 23.96875 -27.054688 24.21875 -27.597656 24.21875 -28.203125 C 24.21875 -28.765625 24.054688 -29.191406 23.734375 -29.484375 C 23.421875 -29.785156 23.050781 -29.9375 22.625 -29.9375 C 22.625 -30.71875 22.914062 -31.398438 23.5 -31.984375 C 24.082031 -32.566406 24.78125 -32.859375 25.59375 -32.859375 C 26.476562 -32.859375 27.203125 -32.59375 27.765625 -32.0625 C 28.335938 -31.53125 28.625 -30.820312 28.625 -29.9375 Z M 18.609375 -20.296875 C 18.609375 -22.453125 18.15625 -24.113281 17.25 -25.28125 C 16.351562 -26.445312 15.003906 -27.03125 13.203125 -27.03125 C 9.703125 -27.03125 7.953125 -24.785156 7.953125 -20.296875 L 7.953125 -17.703125 C 7.953125 -15.617188 8.382812 -13.972656 9.25 -12.765625 C 10.113281 -11.566406 11.429688 -10.96875 13.203125 -10.96875 C 15.003906 -10.96875 16.351562 -11.566406 17.25 -12.765625 C 18.15625 -13.972656 18.609375 -15.617188 18.609375 -17.703125 Z M 18.609375 -20.296875 "/></g></g></g><g fill="#000000" fill-opacity="1"><g transform="translate(349.973161, 203.999987)"><g><path d="M 7.109375 -33.609375 C 6.117188 -33.609375 5.269531 -33.953125 4.5625 -34.640625 C 3.851562 -35.328125 3.5 -36.164062 3.5 -37.15625 C 3.5 -38.144531 3.84375 -38.972656 4.53125 -39.640625 C 5.21875 -40.316406 6.078125 -40.65625 7.109375 -40.65625 C 8.054688 -40.65625 8.863281 -40.316406 9.53125 -39.640625 C 10.207031 -38.972656 10.546875 -38.144531 10.546875 -37.15625 C 10.546875 -36.164062 10.207031 -35.328125 9.53125 -34.640625 C 8.863281 -33.953125 8.054688 -33.609375 7.109375 -33.609375 Z M 1.484375 0 L 1.484375 -1.0625 L 5.1875 -1.59375 L 5.1875 -25.8125 L 1.484375 -26.34375 L 1.484375 -27.40625 L 10.5 -27.40625 L 10.5 -1.59375 L 14.203125 -1.0625 L 14.203125 0 Z M 1.484375 0 "/></g></g></g></svg>