<svg width="214" height="37" viewBox="0 0 214 37" fill="none" xmlns="http://www.w3.org/2000/svg">
<path d="M9.781 28.66C7.735 28.66 5.722 28.077 3.742 26.911L0.937 28.33H0.211V19.849H0.937L3.775 25.987C5.601 27.285 7.691 27.934 10.045 27.934C11.981 27.934 13.576 27.428 14.83 26.416C16.106 25.382 16.744 23.941 16.744 22.093C16.744 20.751 16.337 19.695 15.523 18.925C14.709 18.133 13.389 17.506 11.563 17.044L6.085 15.625C4.171 15.119 2.73 14.261 1.762 13.051C0.794 11.819 0.31 10.367 0.31 8.695C0.31 7.177 0.607 5.835 1.201 4.669C1.817 3.481 2.708 2.568 3.874 1.93C5.04 1.27 6.426 0.939998 8.032 0.939998C10.034 0.939998 11.827 1.281 13.411 1.963L15.82 0.939998H16.546V7.672H15.82L13.444 2.854C11.794 2.062 10.001 1.666 8.065 1.666C6.151 1.666 4.644 2.161 3.544 3.151C2.444 4.119 1.894 5.406 1.894 7.012C1.894 8.2 2.279 9.135 3.049 9.817C3.841 10.499 4.996 11.038 6.514 11.434L12.421 12.985C14.335 13.469 15.754 14.305 16.678 15.493C17.624 16.659 18.097 18.441 18.097 20.839C18.097 23.281 17.338 25.195 15.82 26.581C14.324 27.967 12.311 28.66 9.781 28.66Z" fill="#F70000"/>
<path d="M24.4005 7.078C23.7845 7.078 23.2565 6.869 22.8165 6.451C22.3765 6.011 22.1565 5.483 22.1565 4.867C22.1565 4.251 22.3655 3.734 22.7835 3.316C23.2235 2.898 23.7625 2.689 24.4005 2.689C24.9945 2.689 25.5005 2.898 25.9185 3.316C26.3365 3.734 26.5455 4.251 26.5455 4.867C26.5455 5.483 26.3365 6.011 25.9185 6.451C25.5005 6.869 24.9945 7.078 24.4005 7.078ZM20.9025 28V27.34L23.2125 27.01V11.929L20.9025 11.599V10.939H26.5125V27.01L28.8225 27.34V28H20.9025ZM30.1776 28V27.34L32.6526 27.01V2.59L30.1776 2.26V1.6H35.9526V27.01L38.2626 27.34V28H30.1776ZM45.296 28.33C43.888 28.33 42.733 27.967 41.831 27.241C40.929 26.493 40.478 25.393 40.478 23.941C40.478 21.873 41.347 20.41 43.085 19.552C44.823 18.672 46.836 18.232 49.124 18.232H51.335V15.691C51.335 14.547 51.203 13.667 50.939 13.051C50.697 12.413 50.312 11.973 49.784 11.731C49.256 11.467 48.541 11.335 47.639 11.335C46.605 11.335 45.835 11.544 45.329 11.962C44.823 12.358 44.57 12.897 44.57 13.579C44.57 14.217 44.878 14.635 45.494 14.833C45.494 15.383 45.285 15.867 44.867 16.285C44.449 16.703 43.954 16.912 43.382 16.912C42.766 16.912 42.271 16.747 41.897 16.417C41.523 16.065 41.336 15.537 41.336 14.833C41.336 13.557 41.974 12.534 43.25 11.764C44.526 10.994 46.121 10.609 48.035 10.609C52.435 10.609 54.635 12.523 54.635 16.351V25.789C54.635 26.273 54.734 26.647 54.932 26.911C55.152 27.153 55.46 27.274 55.856 27.274C56.23 27.274 56.527 27.153 56.747 26.911C56.967 26.647 57.077 26.295 57.077 25.855H57.77C57.77 26.625 57.517 27.23 57.011 27.67C56.527 28.11 55.845 28.33 54.965 28.33C53.953 28.33 53.095 28.044 52.391 27.472C51.709 26.878 51.357 25.965 51.335 24.733C50.807 25.855 49.993 26.735 48.893 27.373C47.815 28.011 46.616 28.33 45.296 28.33ZM47.111 26.878C47.705 26.878 48.31 26.702 48.926 26.35C49.564 25.998 50.103 25.492 50.543 24.832C50.983 24.15 51.247 23.336 51.335 22.39V18.958H49.124C47.32 18.958 45.967 19.365 45.065 20.179C44.185 20.971 43.745 22.093 43.745 23.545C43.745 24.755 44.031 25.613 44.603 26.119C45.175 26.625 46.011 26.878 47.111 26.878ZM58.5746 27.34L60.8846 27.01V11.896L58.5746 11.566V10.906H64.1846V14.47C64.9986 13.282 65.9556 12.347 67.0556 11.665C68.1556 10.961 69.3436 10.609 70.6196 10.609C72.2036 10.609 73.4466 11.005 74.3486 11.797C75.2726 12.589 75.7346 13.766 75.7346 15.328V27.01L78.0446 27.34V28H70.4546V27.34L72.4346 27.01V15.394C72.4346 14.25 72.2036 13.37 71.7416 12.754C71.2796 12.116 70.5646 11.797 69.5966 11.797C68.5846 11.797 67.6056 12.171 66.6596 12.919C65.7356 13.645 64.9106 14.547 64.1846 15.625V27.01L66.1646 27.34V28H58.5746V27.34ZM79.2909 28V27.34L81.6009 27.01V2.59L79.2909 2.26V1.6H84.9009V18.529L92.4579 12.325L89.5869 11.566V10.906H95.7909V11.566L93.6789 12.325L88.2009 16.813L95.9229 27.043L97.7049 27.34V28H89.9829V27.34L91.9629 27.01L85.7589 18.826L84.9009 19.552V27.01L86.8809 27.34V28H79.2909ZM102.982 28.33C101.574 28.33 100.419 27.967 99.5165 27.241C98.6145 26.493 98.1635 25.393 98.1635 23.941C98.1635 21.873 99.0325 20.41 100.771 19.552C102.509 18.672 104.522 18.232 106.81 18.232H109.021V15.691C109.021 14.547 108.889 13.667 108.625 13.051C108.383 12.413 107.998 11.973 107.47 11.731C106.942 11.467 106.227 11.335 105.325 11.335C104.291 11.335 103.521 11.544 103.015 11.962C102.509 12.358 102.256 12.897 102.256 13.579C102.256 14.217 102.564 14.635 103.18 14.833C103.18 15.383 102.971 15.867 102.553 16.285C102.135 16.703 101.64 16.912 101.068 16.912C100.452 16.912 99.9565 16.747 99.5825 16.417C99.2085 16.065 99.0215 15.537 99.0215 14.833C99.0215 13.557 99.6595 12.534 100.936 11.764C102.212 10.994 103.807 10.609 105.721 10.609C110.121 10.609 112.321 12.523 112.321 16.351V25.789C112.321 26.273 112.42 26.647 112.618 26.911C112.838 27.153 113.146 27.274 113.542 27.274C113.916 27.274 114.213 27.153 114.433 26.911C114.653 26.647 114.763 26.295 114.763 25.855H115.456C115.456 26.625 115.203 27.23 114.697 27.67C114.213 28.11 113.531 28.33 112.651 28.33C111.639 28.33 110.781 28.044 110.077 27.472C109.395 26.878 109.043 25.965 109.021 24.733C108.493 25.855 107.679 26.735 106.579 27.373C105.501 28.011 104.302 28.33 102.982 28.33ZM104.797 26.878C105.391 26.878 105.996 26.702 106.612 26.35C107.25 25.998 107.789 25.492 108.229 24.832C108.669 24.15 108.933 23.336 109.021 22.39V18.958H106.81C105.006 18.958 103.653 19.365 102.751 20.179C101.871 20.971 101.431 22.093 101.431 23.545C101.431 24.755 101.717 25.613 102.289 26.119C102.861 26.625 103.697 26.878 104.797 26.878ZM145.186 7.078C144.57 7.078 144.042 6.869 143.602 6.451C143.162 6.011 142.942 5.483 142.942 4.867C142.942 4.251 143.151 3.734 143.569 3.316C144.009 2.898 144.548 2.689 145.186 2.689C145.78 2.689 146.286 2.898 146.704 3.316C147.122 3.734 147.331 4.251 147.331 4.867C147.331 5.483 147.122 6.011 146.704 6.451C146.286 6.869 145.78 7.078 145.186 7.078ZM141.688 28V27.34L143.998 27.01V11.929L141.688 11.599V10.939H147.298V27.01L149.608 27.34V28H141.688ZM156.639 28.33C155.231 28.33 154.076 27.967 153.174 27.241C152.272 26.493 151.821 25.393 151.821 23.941C151.821 21.873 152.69 20.41 154.428 19.552C156.166 18.672 158.179 18.232 160.467 18.232H162.678V15.691C162.678 14.547 162.546 13.667 162.282 13.051C162.04 12.413 161.655 11.973 161.127 11.731C160.599 11.467 159.884 11.335 158.982 11.335C157.948 11.335 157.178 11.544 156.672 11.962C156.166 12.358 155.913 12.897 155.913 13.579C155.913 14.217 156.221 14.635 156.837 14.833C156.837 15.383 156.628 15.867 156.21 16.285C155.792 16.703 155.297 16.912 154.725 16.912C154.109 16.912 153.614 16.747 153.24 16.417C152.866 16.065 152.679 15.537 152.679 14.833C152.679 13.557 153.317 12.534 154.593 11.764C155.869 10.994 157.464 10.609 159.378 10.609C163.778 10.609 165.978 12.523 165.978 16.351V25.789C165.978 26.273 166.077 26.647 166.275 26.911C166.495 27.153 166.803 27.274 167.199 27.274C167.573 27.274 167.87 27.153 168.09 26.911C168.31 26.647 168.42 26.295 168.42 25.855H169.113C169.113 26.625 168.86 27.23 168.354 27.67C167.87 28.11 167.188 28.33 166.308 28.33C165.296 28.33 164.438 28.044 163.734 27.472C163.052 26.878 162.7 25.965 162.678 24.733C162.15 25.855 161.336 26.735 160.236 27.373C159.158 28.011 157.959 28.33 156.639 28.33ZM158.454 26.878C159.048 26.878 159.653 26.702 160.269 26.35C160.907 25.998 161.446 25.492 161.886 24.832C162.326 24.15 162.59 23.336 162.678 22.39V18.958H160.467C158.663 18.958 157.31 19.365 156.408 20.179C155.528 20.971 155.088 22.093 155.088 23.545C155.088 24.755 155.374 25.613 155.946 26.119C156.518 26.625 157.354 26.878 158.454 26.878ZM186.846 9.355C186.846 10.213 186.527 10.95 185.889 11.566C185.251 12.182 184.239 12.578 182.853 12.754C183.425 13.59 183.711 14.734 183.711 16.186C183.711 17.902 183.095 19.255 181.863 20.245C180.653 21.235 179.113 21.73 177.243 21.73C176.473 21.73 175.769 21.664 175.131 21.532C173.723 21.62 173.019 22.17 173.019 23.182C173.019 23.754 173.25 24.172 173.712 24.436C174.196 24.7 174.955 24.832 175.989 24.832H179.685C181.467 24.832 182.787 25.195 183.645 25.921C184.525 26.647 184.965 27.89 184.965 29.65C184.965 30.882 184.646 32.015 184.008 33.049C183.392 34.083 182.49 34.897 181.302 35.491C180.114 36.107 178.695 36.415 177.045 36.415C174.559 36.415 172.722 36.041 171.534 35.293C170.368 34.545 169.785 33.555 169.785 32.323C169.785 31.575 170.071 30.915 170.643 30.343C171.215 29.771 171.996 29.485 172.986 29.485C173.184 29.485 173.591 29.529 174.207 29.617C173.525 30.343 173.184 31.201 173.184 32.191C173.184 33.137 173.514 33.962 174.174 34.666C174.834 35.37 175.912 35.722 177.408 35.722C178.706 35.722 179.861 35.469 180.873 34.963C181.907 34.479 182.699 33.841 183.249 33.049C183.799 32.257 184.074 31.443 184.074 30.607C184.074 29.683 183.777 29.012 183.183 28.594C182.589 28.198 181.533 28 180.015 28H175.989C174.449 28 173.283 27.703 172.491 27.109C171.721 26.493 171.336 25.591 171.336 24.403C171.336 23.611 171.556 22.918 171.996 22.324C172.458 21.708 173.041 21.312 173.745 21.136C171.831 20.322 170.874 18.672 170.874 16.186C170.874 14.448 171.479 13.084 172.689 12.094C173.899 11.104 175.417 10.609 177.243 10.609C179.553 10.609 181.225 11.093 182.259 12.061C182.875 11.951 183.337 11.753 183.645 11.467C183.953 11.159 184.107 10.818 184.107 10.444C184.107 10.092 184.008 9.828 183.81 9.652C183.612 9.454 183.381 9.355 183.117 9.355C183.117 8.871 183.293 8.453 183.645 8.101C184.019 7.727 184.459 7.54 184.965 7.54C185.515 7.54 185.966 7.705 186.318 8.035C186.67 8.365 186.846 8.805 186.846 9.355ZM180.609 15.361C180.609 14.019 180.323 12.985 179.751 12.259C179.201 11.533 178.365 11.17 177.243 11.17C175.065 11.17 173.976 12.567 173.976 15.361V16.978C173.976 18.276 174.24 19.299 174.768 20.047C175.318 20.795 176.143 21.169 177.243 21.169C178.365 21.169 179.201 20.795 179.751 20.047C180.323 19.299 180.609 18.276 180.609 16.978V15.361ZM204.507 9.355C204.507 10.213 204.188 10.95 203.55 11.566C202.912 12.182 201.9 12.578 200.514 12.754C201.086 13.59 201.372 14.734 201.372 16.186C201.372 17.902 200.756 19.255 199.524 20.245C198.314 21.235 196.774 21.73 194.904 21.73C194.134 21.73 193.43 21.664 192.792 21.532C191.384 21.62 190.68 22.17 190.68 23.182C190.68 23.754 190.911 24.172 191.373 24.436C191.857 24.7 192.616 24.832 193.65 24.832H197.346C199.128 24.832 200.448 25.195 201.306 25.921C202.186 26.647 202.626 27.89 202.626 29.65C202.626 30.882 202.307 32.015 201.669 33.049C201.053 34.083 200.151 34.897 198.963 35.491C197.775 36.107 196.356 36.415 194.706 36.415C192.22 36.415 190.383 36.041 189.195 35.293C188.029 34.545 187.446 33.555 187.446 32.323C187.446 31.575 187.732 30.915 188.304 30.343C188.876 29.771 189.657 29.485 190.647 29.485C190.845 29.485 191.252 29.529 191.868 29.617C191.186 30.343 190.845 31.201 190.845 32.191C190.845 33.137 191.175 33.962 191.835 34.666C192.495 35.37 193.573 35.722 195.069 35.722C196.367 35.722 197.522 35.469 198.534 34.963C199.568 34.479 200.36 33.841 200.91 33.049C201.46 32.257 201.735 31.443 201.735 30.607C201.735 29.683 201.438 29.012 200.844 28.594C200.25 28.198 199.194 28 197.676 28H193.65C192.11 28 190.944 27.703 190.152 27.109C189.382 26.493 188.997 25.591 188.997 24.403C188.997 23.611 189.217 22.918 189.657 22.324C190.119 21.708 190.702 21.312 191.406 21.136C189.492 20.322 188.535 18.672 188.535 16.186C188.535 14.448 189.14 13.084 190.35 12.094C191.56 11.104 193.078 10.609 194.904 10.609C197.214 10.609 198.886 11.093 199.92 12.061C200.536 11.951 200.998 11.753 201.306 11.467C201.614 11.159 201.768 10.818 201.768 10.444C201.768 10.092 201.669 9.828 201.471 9.652C201.273 9.454 201.042 9.355 200.778 9.355C200.778 8.871 200.954 8.453 201.306 8.101C201.68 7.727 202.12 7.54 202.626 7.54C203.176 7.54 203.627 7.705 203.979 8.035C204.331 8.365 204.507 8.805 204.507 9.355ZM198.27 15.361C198.27 14.019 197.984 12.985 197.412 12.259C196.862 11.533 196.026 11.17 194.904 11.17C192.726 11.17 191.637 12.567 191.637 15.361V16.978C191.637 18.276 191.901 19.299 192.429 20.047C192.979 20.795 193.804 21.169 194.904 21.169C196.026 21.169 196.862 20.795 197.412 20.047C197.984 19.299 198.27 18.276 198.27 16.978V15.361ZM208.769 7.078C208.153 7.078 207.625 6.869 207.185 6.451C206.745 6.011 206.525 5.483 206.525 4.867C206.525 4.251 206.734 3.734 207.152 3.316C207.592 2.898 208.131 2.689 208.769 2.689C209.363 2.689 209.869 2.898 210.287 3.316C210.705 3.734 210.914 4.251 210.914 4.867C210.914 5.483 210.705 6.011 210.287 6.451C209.869 6.869 209.363 7.078 208.769 7.078ZM205.271 28V27.34L207.581 27.01V11.929L205.271 11.599V10.939H210.881V27.01L213.191 27.34V28H205.271Z" fill="white"/>
<path d="M132.01 28.66L124.948 11.896L122.803 11.566V10.906H131.02V11.566L128.644 11.995L133.627 24.403L138.082 12.424L135.178 11.599V10.939H141.085V11.599L139.006 12.391L132.934 28.66H132.01Z" fill="#FF0202"/>
</svg>
