<svg width="182" height="31" viewBox="0 0 182 31" fill="none" xmlns="http://www.w3.org/2000/svg">
<path d="M8.996 23.56C7.26 23.56 5.552 23.0653 3.872 22.076L1.492 23.28H0.876V16.084H1.492L3.9 21.292C5.44933 22.3933 7.22267 22.944 9.22 22.944C10.8627 22.944 12.216 22.5147 13.28 21.656C14.3627 20.7787 14.904 19.556 14.904 17.988C14.904 16.8493 14.5587 15.9533 13.868 15.3C13.1773 14.628 12.0573 14.096 10.508 13.704L5.86 12.5C4.236 12.0707 3.01333 11.3427 2.192 10.316C1.37067 9.27067 0.96 8.03867 0.96 6.62C0.96 5.332 1.212 4.19333 1.716 3.204C2.23867 2.196 2.99467 1.42133 3.984 0.879999C4.97333 0.319999 6.14933 0.0399985 7.512 0.0399985C9.21067 0.0399985 10.732 0.329332 12.076 0.907999L14.12 0.0399985H14.736V5.752H14.12L12.104 1.664C10.704 0.991999 9.18267 0.655999 7.54 0.655999C5.916 0.655999 4.63733 1.076 3.704 1.916C2.77067 2.73733 2.304 3.82933 2.304 5.192C2.304 6.2 2.63067 6.99333 3.284 7.572C3.956 8.15067 4.936 8.608 6.224 8.944L11.236 10.26C12.86 10.6707 14.064 11.38 14.848 12.388C15.6507 13.3773 16.052 14.8893 16.052 16.924C16.052 18.996 15.408 20.62 14.12 21.796C12.8507 22.972 11.1427 23.56 8.996 23.56Z" fill="#F70000"/>
<path d="M21.4004 5.248C20.8778 5.248 20.4298 5.07067 20.0564 4.716C19.6831 4.34267 19.4964 3.89467 19.4964 3.372C19.4964 2.84933 19.6738 2.41067 20.0284 2.056C20.4018 1.70133 20.8591 1.524 21.4004 1.524C21.9044 1.524 22.3338 1.70133 22.6884 2.056C23.0431 2.41067 23.2204 2.84933 23.2204 3.372C23.2204 3.89467 23.0431 4.34267 22.6884 4.716C22.3338 5.07067 21.9044 5.248 21.4004 5.248ZM18.4324 23V22.44L20.3924 22.16V9.364L18.4324 9.084V8.524H23.1924V22.16L25.1524 22.44V23H18.4324ZM26.3022 23V22.44L28.4022 22.16V1.44L26.3022 1.16V0.6H31.2022V22.16L33.1622 22.44V23H26.3022ZM39.1299 23.28C37.9352 23.28 36.9552 22.972 36.1899 22.356C35.4246 21.7213 35.0419 20.788 35.0419 19.556C35.0419 17.8013 35.7792 16.56 37.2539 15.832C38.7286 15.0853 40.4366 14.712 42.3779 14.712H44.2539V12.556C44.2539 11.5853 44.1419 10.8387 43.9179 10.316C43.7126 9.77467 43.3859 9.40133 42.9379 9.196C42.4899 8.972 41.8832 8.86 41.1179 8.86C40.2406 8.86 39.5872 9.03733 39.1579 9.392C38.7286 9.728 38.5139 10.1853 38.5139 10.764C38.5139 11.3053 38.7752 11.66 39.2979 11.828C39.2979 12.2947 39.1206 12.7053 38.7659 13.06C38.4112 13.4147 37.9912 13.592 37.5059 13.592C36.9832 13.592 36.5632 13.452 36.2459 13.172C35.9286 12.8733 35.7699 12.4253 35.7699 11.828C35.7699 10.7453 36.3112 9.87733 37.3939 9.224C38.4766 8.57067 39.8299 8.244 41.4539 8.244C45.1872 8.244 47.0539 9.868 47.0539 13.116V21.124C47.0539 21.5347 47.1379 21.852 47.3059 22.076C47.4926 22.2813 47.7539 22.384 48.0899 22.384C48.4072 22.384 48.6592 22.2813 48.8459 22.076C49.0326 21.852 49.1259 21.5533 49.1259 21.18H49.7139C49.7139 21.8333 49.4992 22.3467 49.0699 22.72C48.6592 23.0933 48.0806 23.28 47.3339 23.28C46.4752 23.28 45.7472 23.0373 45.1499 22.552C44.5712 22.048 44.2726 21.2733 44.2539 20.228C43.8059 21.18 43.1152 21.9267 42.1819 22.468C41.2672 23.0093 40.2499 23.28 39.1299 23.28ZM40.6699 22.048C41.1739 22.048 41.6872 21.8987 42.2099 21.6C42.7512 21.3013 43.2086 20.872 43.5819 20.312C43.9552 19.7333 44.1792 19.0427 44.2539 18.24V15.328H42.3779C40.8472 15.328 39.6992 15.6733 38.9339 16.364C38.1872 17.036 37.8139 17.988 37.8139 19.22C37.8139 20.2467 38.0566 20.9747 38.5419 21.404C39.0272 21.8333 39.7366 22.048 40.6699 22.048ZM50.3966 22.44L52.3566 22.16V9.336L50.3966 9.056V8.496H55.1566V11.52C55.8473 10.512 56.6593 9.71867 57.5926 9.14C58.526 8.54267 59.534 8.244 60.6166 8.244C61.9606 8.244 63.0153 8.58 63.7806 9.252C64.5646 9.924 64.9566 10.9227 64.9566 12.248V22.16L66.9166 22.44V23H60.4766V22.44L62.1566 22.16V12.304C62.1566 11.3333 61.9606 10.5867 61.5686 10.064C61.1766 9.52267 60.57 9.252 59.7486 9.252C58.89 9.252 58.0593 9.56933 57.2566 10.204C56.4726 10.82 55.7726 11.5853 55.1566 12.5V22.16L56.8366 22.44V23H50.3966V22.44ZM67.9741 23V22.44L69.9341 22.16V1.44L67.9741 1.16V0.6H72.7341V14.964L79.1461 9.7L76.7101 9.056V8.496H81.9741V9.056L80.1821 9.7L75.5341 13.508L82.0861 22.188L83.5981 22.44V23H77.0461V22.44L78.7261 22.16L73.4621 15.216L72.7341 15.832V22.16L74.4141 22.44V23H67.9741ZM88.0752 23.28C86.8806 23.28 85.9006 22.972 85.1352 22.356C84.3699 21.7213 83.9872 20.788 83.9872 19.556C83.9872 17.8013 84.7246 16.56 86.1992 15.832C87.6739 15.0853 89.3819 14.712 91.3232 14.712H93.1992V12.556C93.1992 11.5853 93.0872 10.8387 92.8632 10.316C92.6579 9.77467 92.3312 9.40133 91.8832 9.196C91.4352 8.972 90.8286 8.86 90.0632 8.86C89.1859 8.86 88.5326 9.03733 88.1032 9.392C87.6739 9.728 87.4592 10.1853 87.4592 10.764C87.4592 11.3053 87.7206 11.66 88.2432 11.828C88.2432 12.2947 88.0659 12.7053 87.7112 13.06C87.3566 13.4147 86.9366 13.592 86.4512 13.592C85.9286 13.592 85.5086 13.452 85.1912 13.172C84.8739 12.8733 84.7152 12.4253 84.7152 11.828C84.7152 10.7453 85.2566 9.87733 86.3392 9.224C87.4219 8.57067 88.7752 8.244 90.3992 8.244C94.1326 8.244 95.9992 9.868 95.9992 13.116V21.124C95.9992 21.5347 96.0832 21.852 96.2512 22.076C96.4379 22.2813 96.6992 22.384 97.0352 22.384C97.3526 22.384 97.6046 22.2813 97.7912 22.076C97.9779 21.852 98.0712 21.5533 98.0712 21.18H98.6592C98.6592 21.8333 98.4446 22.3467 98.0152 22.72C97.6046 23.0933 97.0259 23.28 96.2792 23.28C95.4206 23.28 94.6926 23.0373 94.0952 22.552C93.5166 22.048 93.2179 21.2733 93.1992 20.228C92.7512 21.18 92.0606 21.9267 91.1272 22.468C90.2126 23.0093 89.1952 23.28 88.0752 23.28ZM89.6152 22.048C90.1192 22.048 90.6326 21.8987 91.1552 21.6C91.6966 21.3013 92.1539 20.872 92.5272 20.312C92.9006 19.7333 93.1246 19.0427 93.1992 18.24V15.328H91.3232C89.7926 15.328 88.6446 15.6733 87.8792 16.364C87.1326 17.036 86.7592 17.988 86.7592 19.22C86.7592 20.2467 87.0019 20.9747 87.4872 21.404C87.9726 21.8333 88.6819 22.048 89.6152 22.048ZM123.885 5.248C123.362 5.248 122.914 5.07067 122.541 4.716C122.167 4.34267 121.981 3.89467 121.981 3.372C121.981 2.84933 122.158 2.41067 122.513 2.056C122.886 1.70133 123.343 1.524 123.885 1.524C124.389 1.524 124.818 1.70133 125.173 2.056C125.527 2.41067 125.705 2.84933 125.705 3.372C125.705 3.89467 125.527 4.34267 125.173 4.716C124.818 5.07067 124.389 5.248 123.885 5.248ZM120.917 23V22.44L122.877 22.16V9.364L120.917 9.084V8.524H125.677V22.16L127.637 22.44V23H120.917ZM133.603 23.28C132.408 23.28 131.428 22.972 130.663 22.356C129.897 21.7213 129.515 20.788 129.515 19.556C129.515 17.8013 130.252 16.56 131.727 15.832C133.201 15.0853 134.909 14.712 136.851 14.712H138.727V12.556C138.727 11.5853 138.615 10.8387 138.391 10.316C138.185 9.77467 137.859 9.40133 137.411 9.196C136.963 8.972 136.356 8.86 135.591 8.86C134.713 8.86 134.06 9.03733 133.631 9.392C133.201 9.728 132.987 10.1853 132.987 10.764C132.987 11.3053 133.248 11.66 133.771 11.828C133.771 12.2947 133.593 12.7053 133.239 13.06C132.884 13.4147 132.464 13.592 131.979 13.592C131.456 13.592 131.036 13.452 130.719 13.172C130.401 12.8733 130.243 12.4253 130.243 11.828C130.243 10.7453 130.784 9.87733 131.867 9.224C132.949 8.57067 134.303 8.244 135.927 8.244C139.66 8.244 141.527 9.868 141.527 13.116V21.124C141.527 21.5347 141.611 21.852 141.779 22.076C141.965 22.2813 142.227 22.384 142.563 22.384C142.88 22.384 143.132 22.2813 143.319 22.076C143.505 21.852 143.599 21.5533 143.599 21.18H144.187C144.187 21.8333 143.972 22.3467 143.543 22.72C143.132 23.0933 142.553 23.28 141.807 23.28C140.948 23.28 140.22 23.0373 139.623 22.552C139.044 22.048 138.745 21.2733 138.727 20.228C138.279 21.18 137.588 21.9267 136.655 22.468C135.74 23.0093 134.723 23.28 133.603 23.28ZM135.143 22.048C135.647 22.048 136.16 21.8987 136.683 21.6C137.224 21.3013 137.681 20.872 138.055 20.312C138.428 19.7333 138.652 19.0427 138.727 18.24V15.328H136.851C135.32 15.328 134.172 15.6733 133.407 16.364C132.66 17.036 132.287 17.988 132.287 19.22C132.287 20.2467 132.529 20.9747 133.015 21.404C133.5 21.8333 134.209 22.048 135.143 22.048ZM159.233 7.18C159.233 7.908 158.963 8.53333 158.421 9.056C157.88 9.57867 157.021 9.91467 155.845 10.064C156.331 10.7733 156.573 11.744 156.573 12.976C156.573 14.432 156.051 15.58 155.005 16.42C153.979 17.26 152.672 17.68 151.085 17.68C150.432 17.68 149.835 17.624 149.293 17.512C148.099 17.5867 147.501 18.0533 147.501 18.912C147.501 19.3973 147.697 19.752 148.089 19.976C148.5 20.2 149.144 20.312 150.021 20.312H153.157C154.669 20.312 155.789 20.62 156.517 21.236C157.264 21.852 157.637 22.9067 157.637 24.4C157.637 25.4453 157.367 26.4067 156.825 27.284C156.303 28.1613 155.537 28.852 154.529 29.356C153.521 29.8787 152.317 30.14 150.917 30.14C148.808 30.14 147.249 29.8227 146.241 29.188C145.252 28.5533 144.757 27.7133 144.757 26.668C144.757 26.0333 145 25.4733 145.485 24.988C145.971 24.5027 146.633 24.26 147.473 24.26C147.641 24.26 147.987 24.2973 148.509 24.372C147.931 24.988 147.641 25.716 147.641 26.556C147.641 27.3587 147.921 28.0587 148.481 28.656C149.041 29.2533 149.956 29.552 151.225 29.552C152.327 29.552 153.307 29.3373 154.165 28.908C155.043 28.4973 155.715 27.956 156.181 27.284C156.648 26.612 156.881 25.9213 156.881 25.212C156.881 24.428 156.629 23.8587 156.125 23.504C155.621 23.168 154.725 23 153.437 23H150.021C148.715 23 147.725 22.748 147.053 22.244C146.4 21.7213 146.073 20.956 146.073 19.948C146.073 19.276 146.26 18.688 146.633 18.184C147.025 17.6613 147.52 17.3253 148.117 17.176C146.493 16.4853 145.681 15.0853 145.681 12.976C145.681 11.5013 146.195 10.344 147.221 9.504C148.248 8.664 149.536 8.244 151.085 8.244C153.045 8.244 154.464 8.65467 155.341 9.476C155.864 9.38267 156.256 9.21467 156.517 8.972C156.779 8.71067 156.909 8.42133 156.909 8.104C156.909 7.80533 156.825 7.58133 156.657 7.432C156.489 7.264 156.293 7.18 156.069 7.18C156.069 6.76933 156.219 6.41467 156.517 6.116C156.835 5.79867 157.208 5.64 157.637 5.64C158.104 5.64 158.487 5.78 158.785 6.06C159.084 6.34 159.233 6.71333 159.233 7.18ZM153.941 12.276C153.941 11.1373 153.699 10.26 153.213 9.644C152.747 9.028 152.037 8.72 151.085 8.72C149.237 8.72 148.313 9.90533 148.313 12.276V13.648C148.313 14.7493 148.537 15.6173 148.985 16.252C149.452 16.8867 150.152 17.204 151.085 17.204C152.037 17.204 152.747 16.8867 153.213 16.252C153.699 15.6173 153.941 14.7493 153.941 13.648V12.276ZM174.218 7.18C174.218 7.908 173.947 8.53333 173.406 9.056C172.864 9.57867 172.006 9.91467 170.83 10.064C171.315 10.7733 171.558 11.744 171.558 12.976C171.558 14.432 171.035 15.58 169.99 16.42C168.963 17.26 167.656 17.68 166.07 17.68C165.416 17.68 164.819 17.624 164.278 17.512C163.083 17.5867 162.486 18.0533 162.486 18.912C162.486 19.3973 162.682 19.752 163.074 19.976C163.484 20.2 164.128 20.312 165.006 20.312H168.142C169.654 20.312 170.774 20.62 171.502 21.236C172.248 21.852 172.622 22.9067 172.622 24.4C172.622 25.4453 172.351 26.4067 171.81 27.284C171.287 28.1613 170.522 28.852 169.514 29.356C168.506 29.8787 167.302 30.14 165.902 30.14C163.792 30.14 162.234 29.8227 161.226 29.188C160.236 28.5533 159.742 27.7133 159.742 26.668C159.742 26.0333 159.984 25.4733 160.47 24.988C160.955 24.5027 161.618 24.26 162.458 24.26C162.626 24.26 162.971 24.2973 163.494 24.372C162.915 24.988 162.626 25.716 162.626 26.556C162.626 27.3587 162.906 28.0587 163.466 28.656C164.026 29.2533 164.94 29.552 166.21 29.552C167.311 29.552 168.291 29.3373 169.15 28.908C170.027 28.4973 170.699 27.956 171.166 27.284C171.632 26.612 171.866 25.9213 171.866 25.212C171.866 24.428 171.614 23.8587 171.11 23.504C170.606 23.168 169.71 23 168.422 23H165.006C163.699 23 162.71 22.748 162.038 22.244C161.384 21.7213 161.058 20.956 161.058 19.948C161.058 19.276 161.244 18.688 161.618 18.184C162.01 17.6613 162.504 17.3253 163.102 17.176C161.478 16.4853 160.666 15.0853 160.666 12.976C160.666 11.5013 161.179 10.344 162.206 9.504C163.232 8.664 164.52 8.244 166.07 8.244C168.03 8.244 169.448 8.65467 170.326 9.476C170.848 9.38267 171.24 9.21467 171.502 8.972C171.763 8.71067 171.894 8.42133 171.894 8.104C171.894 7.80533 171.81 7.58133 171.642 7.432C171.474 7.264 171.278 7.18 171.054 7.18C171.054 6.76933 171.203 6.41467 171.502 6.116C171.819 5.79867 172.192 5.64 172.622 5.64C173.088 5.64 173.471 5.78 173.77 6.06C174.068 6.34 174.218 6.71333 174.218 7.18ZM168.926 12.276C168.926 11.1373 168.683 10.26 168.198 9.644C167.731 9.028 167.022 8.72 166.07 8.72C164.222 8.72 163.298 9.90533 163.298 12.276V13.648C163.298 14.7493 163.522 15.6173 163.97 16.252C164.436 16.8867 165.136 17.204 166.07 17.204C167.022 17.204 167.731 16.8867 168.198 16.252C168.683 15.6173 168.926 14.7493 168.926 13.648V12.276ZM177.834 5.248C177.311 5.248 176.863 5.07067 176.49 4.716C176.117 4.34267 175.93 3.89467 175.93 3.372C175.93 2.84933 176.107 2.41067 176.462 2.056C176.835 1.70133 177.293 1.524 177.834 1.524C178.338 1.524 178.767 1.70133 179.122 2.056C179.477 2.41067 179.654 2.84933 179.654 3.372C179.654 3.89467 179.477 4.34267 179.122 4.716C178.767 5.07067 178.338 5.248 177.834 5.248ZM174.866 23V22.44L176.826 22.16V9.364L174.866 9.084V8.524H179.626V22.16L181.586 22.44V23H174.866Z" fill="white"/>
<path d="M112.705 23.56L106.713 9.336L104.893 9.056V8.496H111.865V9.056L109.849 9.42L114.077 19.948L117.857 9.784L115.393 9.084V8.524H120.405V9.084L118.641 9.756L113.489 23.56H112.705Z" fill="#FF0202"/>
</svg>
