<svg width="130" height="23" viewBox="0 0 130 23" fill="none" xmlns="http://www.w3.org/2000/svg">
<path d="M6.14 17.4C4.9 17.4 3.68 17.0467 2.48 16.34L0.78 17.2H0.34V12.06H0.78L2.5 15.78C3.60667 16.5667 4.87333 16.96 6.3 16.96C7.47333 16.96 8.44 16.6533 9.2 16.04C9.97333 15.4133 10.36 14.54 10.36 13.42C10.36 12.6067 10.1133 11.9667 9.62 11.5C9.12667 11.02 8.32667 10.64 7.22 10.36L3.9 9.5C2.74 9.19333 1.86667 8.67333 1.28 7.94C0.693333 7.19333 0.4 6.31333 0.4 5.3C0.4 4.38 0.58 3.56667 0.94 2.86C1.31333 2.14 1.85333 1.58667 2.56 1.2C3.26667 0.799999 4.10667 0.599999 5.08 0.599999C6.29333 0.599999 7.38 0.806666 8.34 1.22L9.8 0.599999H10.24V4.68H9.8L8.36 1.76C7.36 1.28 6.27333 1.04 5.1 1.04C3.94 1.04 3.02667 1.34 2.36 1.94C1.69333 2.52667 1.36 3.30667 1.36 4.28C1.36 5 1.59333 5.56667 2.06 5.98C2.54 6.39333 3.24 6.72 4.16 6.96L7.74 7.9C8.9 8.19333 9.76 8.7 10.32 9.42C10.8933 10.1267 11.18 11.2067 11.18 12.66C11.18 14.14 10.72 15.3 9.8 16.14C8.89333 16.98 7.67333 17.4 6.14 17.4Z" fill="#F70000"/>
<path d="M15.0003 4.32C14.627 4.32 14.307 4.19333 14.0403 3.94C13.7736 3.67333 13.6403 3.35333 13.6403 2.98C13.6403 2.60667 13.767 2.29333 14.0203 2.04C14.287 1.78667 14.6136 1.66 15.0003 1.66C15.3603 1.66 15.667 1.78667 15.9203 2.04C16.1736 2.29333 16.3003 2.60667 16.3003 2.98C16.3003 3.35333 16.1736 3.67333 15.9203 3.94C15.667 4.19333 15.3603 4.32 15.0003 4.32ZM12.8803 17V16.6L14.2803 16.4V7.26L12.8803 7.06V6.66H16.2803V16.4L17.6803 16.6V17H12.8803ZM18.5016 17V16.6L20.0016 16.4V1.6L18.5016 1.4V1H22.0016V16.4L23.4016 16.6V17H18.5016ZM27.6642 17.2C26.8109 17.2 26.1109 16.98 25.5642 16.54C25.0176 16.0867 24.7442 15.42 24.7442 14.54C24.7442 13.2867 25.2709 12.4 26.3242 11.88C27.3776 11.3467 28.5976 11.08 29.9842 11.08H31.3242V9.54C31.3242 8.84667 31.2442 8.31333 31.0842 7.94C30.9376 7.55333 30.7042 7.28667 30.3842 7.14C30.0642 6.98 29.6309 6.9 29.0842 6.9C28.4576 6.9 27.9909 7.02667 27.6842 7.28C27.3776 7.52 27.2242 7.84667 27.2242 8.26C27.2242 8.64667 27.4109 8.9 27.7842 9.02C27.7842 9.35333 27.6576 9.64667 27.4042 9.9C27.1509 10.1533 26.8509 10.28 26.5042 10.28C26.1309 10.28 25.8309 10.18 25.6042 9.98C25.3776 9.76667 25.2642 9.44667 25.2642 9.02C25.2642 8.24667 25.6509 7.62667 26.4242 7.16C27.1976 6.69333 28.1642 6.46 29.3242 6.46C31.9909 6.46 33.3242 7.62 33.3242 9.94V15.66C33.3242 15.9533 33.3842 16.18 33.5042 16.34C33.6376 16.4867 33.8242 16.56 34.0642 16.56C34.2909 16.56 34.4709 16.4867 34.6042 16.34C34.7376 16.18 34.8042 15.9667 34.8042 15.7H35.2242C35.2242 16.1667 35.0709 16.5333 34.7642 16.8C34.4709 17.0667 34.0576 17.2 33.5242 17.2C32.9109 17.2 32.3909 17.0267 31.9642 16.68C31.5509 16.32 31.3376 15.7667 31.3242 15.02C31.0042 15.7 30.5109 16.2333 29.8442 16.62C29.1909 17.0067 28.4642 17.2 27.6642 17.2ZM28.7642 16.32C29.1242 16.32 29.4909 16.2133 29.8642 16C30.2509 15.7867 30.5776 15.48 30.8442 15.08C31.1109 14.6667 31.2709 14.1733 31.3242 13.6V11.52H29.9842C28.8909 11.52 28.0709 11.7667 27.5242 12.26C26.9909 12.74 26.7242 13.42 26.7242 14.3C26.7242 15.0333 26.8976 15.5533 27.2442 15.86C27.5909 16.1667 28.0976 16.32 28.7642 16.32ZM35.7119 16.6L37.1119 16.4V7.24L35.7119 7.04V6.64H39.1119V8.8C39.6052 8.08 40.1852 7.51333 40.8519 7.1C41.5185 6.67333 42.2385 6.46 43.0119 6.46C43.9719 6.46 44.7252 6.7 45.2719 7.18C45.8319 7.66 46.1119 8.37333 46.1119 9.32V16.4L47.5119 16.6V17H42.9119V16.6L44.1119 16.4V9.36C44.1119 8.66667 43.9719 8.13333 43.6919 7.76C43.4119 7.37333 42.9785 7.18 42.3919 7.18C41.7785 7.18 41.1852 7.40667 40.6119 7.86C40.0519 8.3 39.5519 8.84667 39.1119 9.5V16.4L40.3119 16.6V17H35.7119V16.6ZM48.2672 17V16.6L49.6672 16.4V1.6L48.2672 1.4V1H51.6672V11.26L56.2472 7.5L54.5072 7.04V6.64H58.2672V7.04L56.9872 7.5L53.6672 10.22L58.3472 16.42L59.4272 16.6V17H54.7472V16.6L55.9472 16.4L52.1872 11.44L51.6672 11.88V16.4L52.8672 16.6V17H48.2672ZM62.6252 17.2C61.7718 17.2 61.0718 16.98 60.5252 16.54C59.9785 16.0867 59.7052 15.42 59.7052 14.54C59.7052 13.2867 60.2318 12.4 61.2852 11.88C62.3385 11.3467 63.5585 11.08 64.9452 11.08H66.2852V9.54C66.2852 8.84667 66.2052 8.31333 66.0452 7.94C65.8985 7.55333 65.6652 7.28667 65.3452 7.14C65.0252 6.98 64.5918 6.9 64.0452 6.9C63.4185 6.9 62.9518 7.02667 62.6452 7.28C62.3385 7.52 62.1852 7.84667 62.1852 8.26C62.1852 8.64667 62.3718 8.9 62.7452 9.02C62.7452 9.35333 62.6185 9.64667 62.3652 9.9C62.1118 10.1533 61.8118 10.28 61.4652 10.28C61.0918 10.28 60.7918 10.18 60.5652 9.98C60.3385 9.76667 60.2252 9.44667 60.2252 9.02C60.2252 8.24667 60.6118 7.62667 61.3852 7.16C62.1585 6.69333 63.1252 6.46 64.2852 6.46C66.9518 6.46 68.2852 7.62 68.2852 9.94V15.66C68.2852 15.9533 68.3452 16.18 68.4652 16.34C68.5985 16.4867 68.7852 16.56 69.0252 16.56C69.2518 16.56 69.4318 16.4867 69.5652 16.34C69.6985 16.18 69.7652 15.9667 69.7652 15.7H70.1852C70.1852 16.1667 70.0318 16.5333 69.7252 16.8C69.4318 17.0667 69.0185 17.2 68.4852 17.2C67.8718 17.2 67.3518 17.0267 66.9252 16.68C66.5118 16.32 66.2985 15.7667 66.2852 15.02C65.9652 15.7 65.4718 16.2333 64.8052 16.62C64.1518 17.0067 63.4252 17.2 62.6252 17.2ZM63.7252 16.32C64.0852 16.32 64.4518 16.2133 64.8252 16C65.2118 15.7867 65.5385 15.48 65.8052 15.08C66.0718 14.6667 66.2318 14.1733 66.2852 13.6V11.52H64.9452C63.8518 11.52 63.0318 11.7667 62.4852 12.26C61.9518 12.74 61.6852 13.42 61.6852 14.3C61.6852 15.0333 61.8585 15.5533 62.2052 15.86C62.5518 16.1667 63.0585 16.32 63.7252 16.32ZM88.2034 4.32C87.8301 4.32 87.5101 4.19333 87.2434 3.94C86.9768 3.67333 86.8434 3.35333 86.8434 2.98C86.8434 2.60667 86.9701 2.29333 87.2234 2.04C87.4901 1.78667 87.8168 1.66 88.2034 1.66C88.5634 1.66 88.8701 1.78667 89.1234 2.04C89.3768 2.29333 89.5034 2.60667 89.5034 2.98C89.5034 3.35333 89.3768 3.67333 89.1234 3.94C88.8701 4.19333 88.5634 4.32 88.2034 4.32ZM86.0834 17V16.6L87.4834 16.4V7.26L86.0834 7.06V6.66H89.4834V16.4L90.8834 16.6V17H86.0834ZM95.1447 17.2C94.2914 17.2 93.5914 16.98 93.0447 16.54C92.498 16.0867 92.2247 15.42 92.2247 14.54C92.2247 13.2867 92.7514 12.4 93.8047 11.88C94.858 11.3467 96.078 11.08 97.4647 11.08H98.8047V9.54C98.8047 8.84667 98.7247 8.31333 98.5647 7.94C98.418 7.55333 98.1847 7.28667 97.8647 7.14C97.5447 6.98 97.1114 6.9 96.5647 6.9C95.938 6.9 95.4714 7.02667 95.1647 7.28C94.858 7.52 94.7047 7.84667 94.7047 8.26C94.7047 8.64667 94.8914 8.9 95.2647 9.02C95.2647 9.35333 95.138 9.64667 94.8847 9.9C94.6314 10.1533 94.3314 10.28 93.9847 10.28C93.6114 10.28 93.3114 10.18 93.0847 9.98C92.858 9.76667 92.7447 9.44667 92.7447 9.02C92.7447 8.24667 93.1314 7.62667 93.9047 7.16C94.678 6.69333 95.6447 6.46 96.8047 6.46C99.4714 6.46 100.805 7.62 100.805 9.94V15.66C100.805 15.9533 100.865 16.18 100.985 16.34C101.118 16.4867 101.305 16.56 101.545 16.56C101.771 16.56 101.951 16.4867 102.085 16.34C102.218 16.18 102.285 15.9667 102.285 15.7H102.705C102.705 16.1667 102.551 16.5333 102.245 16.8C101.951 17.0667 101.538 17.2 101.005 17.2C100.391 17.2 99.8714 17.0267 99.4447 16.68C99.0314 16.32 98.818 15.7667 98.8047 15.02C98.4847 15.7 97.9914 16.2333 97.3247 16.62C96.6714 17.0067 95.9447 17.2 95.1447 17.2ZM96.2447 16.32C96.6047 16.32 96.9714 16.2133 97.3447 16C97.7314 15.7867 98.058 15.48 98.3247 15.08C98.5914 14.6667 98.7514 14.1733 98.8047 13.6V11.52H97.4647C96.3714 11.52 95.5514 11.7667 95.0047 12.26C94.4714 12.74 94.2047 13.42 94.2047 14.3C94.2047 15.0333 94.378 15.5533 94.7247 15.86C95.0714 16.1667 95.578 16.32 96.2447 16.32ZM113.452 5.7C113.452 6.22 113.259 6.66667 112.872 7.04C112.486 7.41333 111.872 7.65333 111.032 7.76C111.379 8.26667 111.552 8.96 111.552 9.84C111.552 10.88 111.179 11.7 110.432 12.3C109.699 12.9 108.766 13.2 107.632 13.2C107.166 13.2 106.739 13.16 106.352 13.08C105.499 13.1333 105.072 13.4667 105.072 14.08C105.072 14.4267 105.212 14.68 105.492 14.84C105.786 15 106.246 15.08 106.872 15.08H109.112C110.192 15.08 110.992 15.3 111.512 15.74C112.046 16.18 112.312 16.9333 112.312 18C112.312 18.7467 112.119 19.4333 111.732 20.06C111.359 20.6867 110.812 21.18 110.092 21.54C109.372 21.9133 108.512 22.1 107.512 22.1C106.006 22.1 104.892 21.8733 104.172 21.42C103.466 20.9667 103.112 20.3667 103.112 19.62C103.112 19.1667 103.286 18.7667 103.632 18.42C103.979 18.0733 104.452 17.9 105.052 17.9C105.172 17.9 105.419 17.9267 105.792 17.98C105.379 18.42 105.172 18.94 105.172 19.54C105.172 20.1133 105.372 20.6133 105.772 21.04C106.172 21.4667 106.826 21.68 107.732 21.68C108.519 21.68 109.219 21.5267 109.832 21.22C110.459 20.9267 110.939 20.54 111.272 20.06C111.606 19.58 111.772 19.0867 111.772 18.58C111.772 18.02 111.592 17.6133 111.232 17.36C110.872 17.12 110.232 17 109.312 17H106.872C105.939 17 105.232 16.82 104.752 16.46C104.286 16.0867 104.052 15.54 104.052 14.82C104.052 14.34 104.186 13.92 104.452 13.56C104.732 13.1867 105.086 12.9467 105.512 12.84C104.352 12.3467 103.772 11.3467 103.772 9.84C103.772 8.78667 104.139 7.96 104.872 7.36C105.606 6.76 106.526 6.46 107.632 6.46C109.032 6.46 110.046 6.75333 110.672 7.34C111.046 7.27333 111.326 7.15333 111.512 6.98C111.699 6.79333 111.792 6.58667 111.792 6.36C111.792 6.14667 111.732 5.98667 111.612 5.88C111.492 5.76 111.352 5.7 111.192 5.7C111.192 5.40667 111.299 5.15333 111.512 4.94C111.739 4.71333 112.006 4.6 112.312 4.6C112.646 4.6 112.919 4.7 113.132 4.9C113.346 5.1 113.452 5.36667 113.452 5.7ZM109.672 9.34C109.672 8.52667 109.499 7.9 109.152 7.46C108.819 7.02 108.312 6.8 107.632 6.8C106.312 6.8 105.652 7.64667 105.652 9.34V10.32C105.652 11.1067 105.812 11.7267 106.132 12.18C106.466 12.6333 106.966 12.86 107.632 12.86C108.312 12.86 108.819 12.6333 109.152 12.18C109.499 11.7267 109.672 11.1067 109.672 10.32V9.34ZM124.155 5.7C124.155 6.22 123.962 6.66667 123.575 7.04C123.189 7.41333 122.575 7.65333 121.735 7.76C122.082 8.26667 122.255 8.96 122.255 9.84C122.255 10.88 121.882 11.7 121.135 12.3C120.402 12.9 119.469 13.2 118.335 13.2C117.869 13.2 117.442 13.16 117.055 13.08C116.202 13.1333 115.775 13.4667 115.775 14.08C115.775 14.4267 115.915 14.68 116.195 14.84C116.489 15 116.949 15.08 117.575 15.08H119.815C120.895 15.08 121.695 15.3 122.215 15.74C122.749 16.18 123.015 16.9333 123.015 18C123.015 18.7467 122.822 19.4333 122.435 20.06C122.062 20.6867 121.515 21.18 120.795 21.54C120.075 21.9133 119.215 22.1 118.215 22.1C116.709 22.1 115.595 21.8733 114.875 21.42C114.169 20.9667 113.815 20.3667 113.815 19.62C113.815 19.1667 113.989 18.7667 114.335 18.42C114.682 18.0733 115.155 17.9 115.755 17.9C115.875 17.9 116.122 17.9267 116.495 17.98C116.082 18.42 115.875 18.94 115.875 19.54C115.875 20.1133 116.075 20.6133 116.475 21.04C116.875 21.4667 117.529 21.68 118.435 21.68C119.222 21.68 119.922 21.5267 120.535 21.22C121.162 20.9267 121.642 20.54 121.975 20.06C122.309 19.58 122.475 19.0867 122.475 18.58C122.475 18.02 122.295 17.6133 121.935 17.36C121.575 17.12 120.935 17 120.015 17H117.575C116.642 17 115.935 16.82 115.455 16.46C114.989 16.0867 114.755 15.54 114.755 14.82C114.755 14.34 114.889 13.92 115.155 13.56C115.435 13.1867 115.789 12.9467 116.215 12.84C115.055 12.3467 114.475 11.3467 114.475 9.84C114.475 8.78667 114.842 7.96 115.575 7.36C116.309 6.76 117.229 6.46 118.335 6.46C119.735 6.46 120.749 6.75333 121.375 7.34C121.749 7.27333 122.029 7.15333 122.215 6.98C122.402 6.79333 122.495 6.58667 122.495 6.36C122.495 6.14667 122.435 5.98667 122.315 5.88C122.195 5.76 122.055 5.7 121.895 5.7C121.895 5.40667 122.002 5.15333 122.215 4.94C122.442 4.71333 122.709 4.6 123.015 4.6C123.349 4.6 123.622 4.7 123.835 4.9C124.049 5.1 124.155 5.36667 124.155 5.7ZM120.375 9.34C120.375 8.52667 120.202 7.9 119.855 7.46C119.522 7.02 119.015 6.8 118.335 6.8C117.015 6.8 116.355 7.64667 116.355 9.34V10.32C116.355 11.1067 116.515 11.7267 116.835 12.18C117.169 12.6333 117.669 12.86 118.335 12.86C119.015 12.86 119.522 12.6333 119.855 12.18C120.202 11.7267 120.375 11.1067 120.375 10.32V9.34ZM126.739 4.32C126.365 4.32 126.045 4.19333 125.779 3.94C125.512 3.67333 125.379 3.35333 125.379 2.98C125.379 2.60667 125.505 2.29333 125.759 2.04C126.025 1.78667 126.352 1.66 126.739 1.66C127.099 1.66 127.405 1.78667 127.659 2.04C127.912 2.29333 128.039 2.60667 128.039 2.98C128.039 3.35333 127.912 3.67333 127.659 3.94C127.405 4.19333 127.099 4.32 126.739 4.32ZM124.619 17V16.6L126.019 16.4V7.26L124.619 7.06V6.66H128.019V16.4L129.419 16.6V17H124.619Z" fill="white"/>
<path d="M80.218 17.4L75.938 7.24L74.638 7.04V6.64H79.618V7.04L78.178 7.3L81.198 14.82L83.898 7.56L82.138 7.06V6.66H85.718V7.06L84.458 7.54L80.778 17.4H80.218Z" fill="#FF0202"/>
</svg>
