<svg width="433" height="73" viewBox="0 0 433 73" fill="none" xmlns="http://www.w3.org/2000/svg">
<path d="M19.919 56.34C15.765 56.34 11.678 55.1563 7.658 52.789L1.963 55.67H0.489V38.451H1.963L7.725 50.913C11.4323 53.5483 15.6757 54.866 20.455 54.866C24.3857 54.866 27.624 53.8387 30.17 51.784C32.7607 49.6847 34.056 46.759 34.056 43.007C34.056 40.2823 33.2297 38.1383 31.577 36.575C29.9243 34.967 27.2443 33.694 23.537 32.756L12.415 29.875C8.529 28.8477 5.60333 27.1057 3.638 24.649C1.67267 22.1477 0.69 19.1997 0.69 15.805C0.69 12.723 1.293 9.99833 2.499 7.631C3.74967 5.219 5.55867 3.36533 7.926 2.07C10.2933 0.729997 13.1073 0.0599965 16.368 0.0599965C20.4327 0.0599965 24.073 0.75233 27.289 2.137L32.18 0.0599965H33.654V13.728H32.18L27.356 3.946C24.006 2.338 20.3657 1.534 16.435 1.534C12.549 1.534 9.48933 2.539 7.256 4.549C5.02267 6.51433 3.906 9.12733 3.906 12.388C3.906 14.8 4.68767 16.6983 6.251 18.083C7.859 19.4677 10.204 20.562 13.286 21.366L25.279 24.515C29.165 25.4977 32.046 27.195 33.922 29.607C35.8427 31.9743 36.803 35.5923 36.803 40.461C36.803 45.419 35.262 49.305 32.18 52.119C29.1427 54.933 25.0557 56.34 19.919 56.34Z" fill="#F70000"/>
<path d="M49.601 12.522C48.3504 12.522 47.2784 12.0977 46.385 11.249C45.4917 10.3557 45.045 9.28366 45.045 8.033C45.045 6.78233 45.4694 5.73266 46.318 4.884C47.2114 4.03533 48.3057 3.611 49.601 3.611C50.807 3.611 51.8344 4.03533 52.683 4.884C53.5317 5.73266 53.956 6.78233 53.956 8.033C53.956 9.28366 53.5317 10.3557 52.683 11.249C51.8344 12.0977 50.807 12.522 49.601 12.522ZM42.499 55V53.66L47.189 52.99V22.371L42.499 21.701V20.361H53.889V52.99L58.579 53.66V55H42.499ZM61.3302 55V53.66L66.3552 52.99V3.41L61.3302 2.74V1.4H73.0552V52.99L77.7452 53.66V55H61.3302ZM92.0251 55.67C89.1665 55.67 86.8215 54.933 84.9901 53.459C83.1588 51.9403 82.2431 49.707 82.2431 46.759C82.2431 42.5603 84.0075 39.59 87.5361 37.848C91.0648 36.0613 95.1518 35.168 99.7971 35.168H104.286V30.009C104.286 27.6863 104.018 25.8997 103.482 24.649C102.991 23.3537 102.209 22.4603 101.137 21.969C100.065 21.433 98.6135 21.165 96.7821 21.165C94.6828 21.165 93.1195 21.5893 92.0921 22.438C91.0648 23.242 90.5511 24.3363 90.5511 25.721C90.5511 27.0163 91.1765 27.865 92.4271 28.267C92.4271 29.3837 92.0028 30.3663 91.1541 31.215C90.3055 32.0637 89.3005 32.488 88.1391 32.488C86.8885 32.488 85.8835 32.153 85.1241 31.483C84.3648 30.7683 83.9851 29.6963 83.9851 28.267C83.9851 25.6763 85.2805 23.5993 87.8711 22.036C90.4618 20.4727 93.7001 19.691 97.5861 19.691C106.519 19.691 110.986 23.577 110.986 31.349V50.511C110.986 51.4937 111.187 52.253 111.589 52.789C112.036 53.2803 112.661 53.526 113.465 53.526C114.224 53.526 114.827 53.2803 115.274 52.789C115.721 52.253 115.944 51.5383 115.944 50.645H117.351C117.351 52.2083 116.837 53.4367 115.81 54.33C114.827 55.2233 113.443 55.67 111.656 55.67C109.601 55.67 107.859 55.0893 106.43 53.928C105.045 52.722 104.331 50.8683 104.286 48.367C103.214 50.645 101.561 52.4317 99.3281 53.727C97.1395 55.0223 94.7051 55.67 92.0251 55.67ZM95.7101 52.722C96.9161 52.722 98.1445 52.3647 99.3951 51.65C100.69 50.9353 101.785 49.908 102.678 48.568C103.571 47.1833 104.107 45.5307 104.286 43.61V36.642H99.7971C96.1345 36.642 93.3875 37.4683 91.5561 39.121C89.7695 40.729 88.8761 43.007 88.8761 45.955C88.8761 48.4117 89.4568 50.1537 90.6181 51.181C91.7795 52.2083 93.4768 52.722 95.7101 52.722ZM118.985 53.66L123.675 52.99V22.304L118.985 21.634V20.294H130.375V27.53C132.027 25.118 133.97 23.2197 136.204 21.835C138.437 20.4057 140.849 19.691 143.44 19.691C146.656 19.691 149.179 20.495 151.011 22.103C152.887 23.711 153.825 26.1007 153.825 29.272V52.99L158.515 53.66V55H143.105V53.66L147.125 52.99V29.406C147.125 27.0833 146.656 25.2967 145.718 24.046C144.78 22.7507 143.328 22.103 141.363 22.103C139.308 22.103 137.32 22.8623 135.4 24.381C133.524 25.855 131.849 27.6863 130.375 29.875V52.99L134.395 53.66V55H118.985V53.66ZM161.045 55V53.66L165.735 52.99V3.41L161.045 2.74V1.4H172.435V35.771L187.778 23.175L181.949 21.634V20.294H194.545V21.634L190.257 23.175L179.135 32.287L194.813 53.057L198.431 53.66V55H182.753V53.66L186.773 52.99L174.177 36.374L172.435 37.848V52.99L176.455 53.66V55H161.045ZM209.144 55.67C206.286 55.67 203.941 54.933 202.109 53.459C200.278 51.9403 199.362 49.707 199.362 46.759C199.362 42.5603 201.127 39.59 204.655 37.848C208.184 36.0613 212.271 35.168 216.916 35.168H221.405V30.009C221.405 27.6863 221.137 25.8997 220.601 24.649C220.11 23.3537 219.328 22.4603 218.256 21.969C217.184 21.433 215.733 21.165 213.901 21.165C211.802 21.165 210.239 21.5893 209.211 22.438C208.184 23.242 207.67 24.3363 207.67 25.721C207.67 27.0163 208.296 27.865 209.546 28.267C209.546 29.3837 209.122 30.3663 208.273 31.215C207.425 32.0637 206.42 32.488 205.258 32.488C204.008 32.488 203.003 32.153 202.243 31.483C201.484 30.7683 201.104 29.6963 201.104 28.267C201.104 25.6763 202.4 23.5993 204.99 22.036C207.581 20.4727 210.819 19.691 214.705 19.691C223.639 19.691 228.105 23.577 228.105 31.349V50.511C228.105 51.4937 228.306 52.253 228.708 52.789C229.155 53.2803 229.78 53.526 230.584 53.526C231.344 53.526 231.947 53.2803 232.393 52.789C232.84 52.253 233.063 51.5383 233.063 50.645H234.47C234.47 52.2083 233.957 53.4367 232.929 54.33C231.947 55.2233 230.562 55.67 228.775 55.67C226.721 55.67 224.979 55.0893 223.549 53.928C222.165 52.722 221.45 50.8683 221.405 48.367C220.333 50.645 218.681 52.4317 216.447 53.727C214.259 55.0223 211.824 55.67 209.144 55.67ZM212.829 52.722C214.035 52.722 215.264 52.3647 216.514 51.65C217.81 50.9353 218.904 49.908 219.797 48.568C220.691 47.1833 221.227 45.5307 221.405 43.61V36.642H216.916C213.254 36.642 210.507 37.4683 208.675 39.121C206.889 40.729 205.995 43.007 205.995 45.955C205.995 48.4117 206.576 50.1537 207.737 51.181C208.899 52.2083 210.596 52.722 212.829 52.722ZM294.832 12.522C293.581 12.522 292.509 12.0977 291.616 11.249C290.722 10.3557 290.276 9.28366 290.276 8.033C290.276 6.78233 290.7 5.73266 291.549 4.884C292.442 4.03533 293.536 3.611 294.832 3.611C296.038 3.611 297.065 4.03533 297.914 4.884C298.762 5.73266 299.187 6.78233 299.187 8.033C299.187 9.28366 298.762 10.3557 297.914 11.249C297.065 12.0977 296.038 12.522 294.832 12.522ZM287.73 55V53.66L292.42 52.99V22.371L287.73 21.701V20.361H299.12V52.99L303.81 53.66V55H287.73ZM318.085 55.67C315.226 55.67 312.881 54.933 311.05 53.459C309.218 51.9403 308.303 49.707 308.303 46.759C308.303 42.5603 310.067 39.59 313.596 37.848C317.124 36.0613 321.211 35.168 325.857 35.168H330.346V30.009C330.346 27.6863 330.078 25.8997 329.542 24.649C329.05 23.3537 328.269 22.4603 327.197 21.969C326.125 21.433 324.673 21.165 322.842 21.165C320.742 21.165 319.179 21.5893 318.152 22.438C317.124 23.242 316.611 24.3363 316.611 25.721C316.611 27.0163 317.236 27.865 318.487 28.267C318.487 29.3837 318.062 30.3663 317.214 31.215C316.365 32.0637 315.36 32.488 314.199 32.488C312.948 32.488 311.943 32.153 311.184 31.483C310.424 30.7683 310.045 29.6963 310.045 28.267C310.045 25.6763 311.34 23.5993 313.931 22.036C316.521 20.4727 319.76 19.691 323.646 19.691C332.579 19.691 337.046 23.577 337.046 31.349V50.511C337.046 51.4937 337.247 52.253 337.649 52.789C338.095 53.2803 338.721 53.526 339.525 53.526C340.284 53.526 340.887 53.2803 341.334 52.789C341.78 52.253 342.004 51.5383 342.004 50.645H343.411C343.411 52.2083 342.897 53.4367 341.87 54.33C340.887 55.2233 339.502 55.67 337.716 55.67C335.661 55.67 333.919 55.0893 332.49 53.928C331.105 52.722 330.39 50.8683 330.346 48.367C329.274 50.645 327.621 52.4317 325.388 53.727C323.199 55.0223 320.765 55.67 318.085 55.67ZM321.77 52.722C322.976 52.722 324.204 52.3647 325.455 51.65C326.75 50.9353 327.844 49.908 328.738 48.568C329.631 47.1833 330.167 45.5307 330.346 43.61V36.642H325.857C322.194 36.642 319.447 37.4683 317.616 39.121C315.829 40.729 314.936 43.007 314.936 45.955C314.936 48.4117 315.516 50.1537 316.678 51.181C317.839 52.2083 319.536 52.722 321.77 52.722ZM379.415 17.145C379.415 18.887 378.768 20.3833 377.472 21.634C376.177 22.8847 374.122 23.6887 371.308 24.046C372.47 25.7433 373.05 28.066 373.05 31.014C373.05 34.498 371.8 37.245 369.298 39.255C366.842 41.265 363.715 42.27 359.918 42.27C358.355 42.27 356.926 42.136 355.63 41.868C352.772 42.0467 351.342 43.1633 351.342 45.218C351.342 46.3793 351.811 47.228 352.749 47.764C353.732 48.3 355.273 48.568 357.372 48.568H364.876C368.494 48.568 371.174 49.305 372.916 50.779C374.703 52.253 375.596 54.7767 375.596 58.35C375.596 60.8513 374.949 63.1517 373.653 65.251C372.403 67.3503 370.571 69.003 368.159 70.209C365.747 71.4597 362.866 72.085 359.516 72.085C354.469 72.085 350.739 71.3257 348.327 69.807C345.96 68.2883 344.776 66.2783 344.776 63.777C344.776 62.2583 345.357 60.9183 346.518 59.757C347.68 58.5957 349.265 58.015 351.275 58.015C351.677 58.015 352.504 58.1043 353.754 58.283C352.37 59.757 351.677 61.499 351.677 63.509C351.677 65.4297 352.347 67.1047 353.687 68.534C355.027 69.9633 357.216 70.678 360.253 70.678C362.889 70.678 365.234 70.1643 367.288 69.137C369.388 68.1543 370.996 66.859 372.112 65.251C373.229 63.643 373.787 61.9903 373.787 60.293C373.787 58.417 373.184 57.0547 371.978 56.206C370.772 55.402 368.628 55 365.546 55H357.372C354.246 55 351.878 54.397 350.27 53.191C348.707 51.9403 347.925 50.109 347.925 47.697C347.925 46.089 348.372 44.682 349.265 43.476C350.203 42.2253 351.387 41.4213 352.816 41.064C348.93 39.4113 346.987 36.0613 346.987 31.014C346.987 27.4853 348.216 24.716 350.672 22.706C353.129 20.696 356.211 19.691 359.918 19.691C364.608 19.691 368.003 20.6737 370.102 22.639C371.353 22.4157 372.291 22.0137 372.916 21.433C373.542 20.8077 373.854 20.1153 373.854 19.356C373.854 18.6413 373.653 18.1053 373.251 17.748C372.849 17.346 372.38 17.145 371.844 17.145C371.844 16.1623 372.202 15.3137 372.916 14.599C373.676 13.8397 374.569 13.46 375.596 13.46C376.713 13.46 377.629 13.795 378.343 14.465C379.058 15.135 379.415 16.0283 379.415 17.145ZM366.752 29.339C366.752 26.6143 366.172 24.515 365.01 23.041C363.894 21.567 362.196 20.83 359.918 20.83C355.496 20.83 353.285 23.6663 353.285 29.339V32.622C353.285 35.2573 353.821 37.3343 354.893 38.853C356.01 40.3717 357.685 41.131 359.918 41.131C362.196 41.131 363.894 40.3717 365.01 38.853C366.172 37.3343 366.752 35.2573 366.752 32.622V29.339ZM415.271 17.145C415.271 18.887 414.623 20.3833 413.328 21.634C412.032 22.8847 409.978 23.6887 407.164 24.046C408.325 25.7433 408.906 28.066 408.906 31.014C408.906 34.498 407.655 37.245 405.154 39.255C402.697 41.265 399.57 42.27 395.774 42.27C394.21 42.27 392.781 42.136 391.486 41.868C388.627 42.0467 387.198 43.1633 387.198 45.218C387.198 46.3793 387.667 47.228 388.605 47.764C389.587 48.3 391.128 48.568 393.228 48.568H400.732C404.35 48.568 407.03 49.305 408.772 50.779C410.558 52.253 411.452 54.7767 411.452 58.35C411.452 60.8513 410.804 63.1517 409.509 65.251C408.258 67.3503 406.427 69.003 404.015 70.209C401.603 71.4597 398.722 72.085 395.372 72.085C390.324 72.085 386.595 71.3257 384.183 69.807C381.815 68.2883 380.632 66.2783 380.632 63.777C380.632 62.2583 381.212 60.9183 382.374 59.757C383.535 58.5957 385.121 58.015 387.131 58.015C387.533 58.015 388.359 58.1043 389.61 58.283C388.225 59.757 387.533 61.499 387.533 63.509C387.533 65.4297 388.203 67.1047 389.543 68.534C390.883 69.9633 393.071 70.678 396.109 70.678C398.744 70.678 401.089 70.1643 403.144 69.137C405.243 68.1543 406.851 66.859 407.968 65.251C409.084 63.643 409.643 61.9903 409.643 60.293C409.643 58.417 409.04 57.0547 407.834 56.206C406.628 55.402 404.484 55 401.402 55H393.228C390.101 55 387.734 54.397 386.126 53.191C384.562 51.9403 383.781 50.109 383.781 47.697C383.781 46.089 384.227 44.682 385.121 43.476C386.059 42.2253 387.242 41.4213 388.672 41.064C384.786 39.4113 382.843 36.0613 382.843 31.014C382.843 27.4853 384.071 24.716 386.528 22.706C388.984 20.696 392.066 19.691 395.774 19.691C400.464 19.691 403.858 20.6737 405.958 22.639C407.208 22.4157 408.146 22.0137 408.772 21.433C409.397 20.8077 409.71 20.1153 409.71 19.356C409.71 18.6413 409.509 18.1053 409.107 17.748C408.705 17.346 408.236 17.145 407.7 17.145C407.7 16.1623 408.057 15.3137 408.772 14.599C409.531 13.8397 410.424 13.46 411.452 13.46C412.568 13.46 413.484 13.795 414.199 14.465C414.913 15.135 415.271 16.0283 415.271 17.145ZM402.608 29.339C402.608 26.6143 402.027 24.515 400.866 23.041C399.749 21.567 398.052 20.83 395.774 20.83C391.352 20.83 389.141 23.6663 389.141 29.339V32.622C389.141 35.2573 389.677 37.3343 390.749 38.853C391.865 40.3717 393.54 41.131 395.774 41.131C398.052 41.131 399.749 40.3717 400.866 38.853C402.027 37.3343 402.608 35.2573 402.608 32.622V29.339ZM423.924 12.522C422.674 12.522 421.602 12.0977 420.708 11.249C419.815 10.3557 419.368 9.28366 419.368 8.033C419.368 6.78233 419.793 5.73266 420.641 4.884C421.535 4.03533 422.629 3.611 423.924 3.611C425.13 3.611 426.158 4.03533 427.006 4.884C427.855 5.73266 428.279 6.78233 428.279 8.033C428.279 9.28366 427.855 10.3557 427.006 11.249C426.158 12.0977 425.13 12.522 423.924 12.522ZM416.822 55V53.66L421.512 52.99V22.371L416.822 21.701V20.361H428.212V52.99L432.902 53.66V55H416.822Z" fill="white"/>
<path d="M268.08 56.34L253.742 22.304L249.387 21.634V20.294H266.07V21.634L261.246 22.505L271.363 47.697L280.408 23.376L274.512 21.701V20.361H286.505V21.701L282.284 23.309L269.956 56.34H268.08Z" fill="#FF0202"/>
</svg>
