<svg xmlns="http://www.w3.org/2000/svg" xmlns:xlink="http://www.w3.org/1999/xlink" width="1080" zoomAndPan="magnify" viewBox="0 0 810 809.999993" height="1080" preserveAspectRatio="xMidYMid meet" version="1.0"><defs><g/></defs><g fill="#ffffff" fill-opacity="1"><g transform="translate(77.715861, 404.008569)"><g><path d="M 36.25 2.03125 C 29.957031 2.03125 23.765625 0.238281 17.671875 -3.34375 L 9.03125 1.015625 L 6.796875 1.015625 L 6.796875 -25.078125 L 9.03125 -25.078125 L 17.765625 -6.1875 C 23.390625 -2.195312 29.820312 -0.203125 37.0625 -0.203125 C 43.019531 -0.203125 47.941406 -1.773438 51.828125 -4.921875 C 55.722656 -8.066406 57.671875 -12.484375 57.671875 -18.171875 C 57.671875 -22.304688 56.421875 -25.570312 53.921875 -27.96875 C 51.421875 -30.375 47.359375 -32.289062 41.734375 -33.71875 L 24.875 -38.078125 C 18.988281 -39.640625 14.554688 -42.296875 11.578125 -46.046875 C 8.597656 -49.804688 7.109375 -54.257812 7.109375 -59.40625 C 7.109375 -64.070312 8.035156 -68.21875 9.890625 -71.84375 C 11.753906 -75.46875 14.476562 -78.273438 18.0625 -80.265625 C 21.65625 -82.265625 25.925781 -83.265625 30.875 -83.265625 C 37.03125 -83.265625 42.546875 -82.21875 47.421875 -80.125 L 54.828125 -83.265625 L 57.0625 -83.265625 L 57.0625 -62.546875 L 54.828125 -62.546875 L 47.53125 -77.375 C 42.445312 -79.8125 36.925781 -81.03125 30.96875 -81.03125 C 25.082031 -81.03125 20.445312 -79.523438 17.0625 -76.515625 C 13.675781 -73.503906 11.984375 -69.523438 11.984375 -64.578125 C 11.984375 -60.921875 13.179688 -58.039062 15.578125 -55.9375 C 17.984375 -53.84375 21.523438 -52.1875 26.203125 -50.96875 L 44.375 -46.203125 C 50.257812 -44.710938 54.640625 -42.15625 57.515625 -38.53125 C 60.398438 -34.914062 61.84375 -29.414062 61.84375 -22.03125 C 61.84375 -14.519531 59.523438 -8.628906 54.890625 -4.359375 C 50.253906 -0.0976562 44.039062 2.03125 36.25 2.03125 Z M 36.25 2.03125 "/></g></g></g><g fill="#ffffff" fill-opacity="1"><g transform="translate(145.344469, 404.008569)"><g><path d="M 13.609375 -64.375 C 11.710938 -64.375 10.085938 -65.035156 8.734375 -66.359375 C 7.378906 -67.679688 6.703125 -69.289062 6.703125 -71.1875 C 6.703125 -73.082031 7.359375 -74.671875 8.671875 -75.953125 C 9.992188 -77.242188 11.640625 -77.890625 13.609375 -77.890625 C 15.429688 -77.890625 16.984375 -77.242188 18.265625 -75.953125 C 19.554688 -74.671875 20.203125 -73.082031 20.203125 -71.1875 C 20.203125 -69.289062 19.554688 -67.679688 18.265625 -66.359375 C 16.984375 -65.035156 15.429688 -64.375 13.609375 -64.375 Z M 2.84375 0 L 2.84375 -2.03125 L 9.953125 -3.046875 L 9.953125 -49.453125 L 2.84375 -50.46875 L 2.84375 -52.5 L 20.109375 -52.5 L 20.109375 -3.046875 L 27.21875 -2.03125 L 27.21875 0 Z M 2.84375 0 "/></g></g></g><g fill="#ffffff" fill-opacity="1"><g transform="translate(174.69082, 404.008569)"><g><path d="M 2.03125 0 L 2.03125 -2.03125 L 9.640625 -3.046875 L 9.640625 -78.1875 L 2.03125 -79.203125 L 2.03125 -81.234375 L 19.796875 -81.234375 L 19.796875 -3.046875 L 26.90625 -2.03125 L 26.90625 0 Z M 2.03125 0 "/></g></g></g><g fill="#ffffff" fill-opacity="1"><g transform="translate(203.732539, 404.008569)"><g><path d="M 19.5 1.015625 C 15.164062 1.015625 11.609375 -0.113281 8.828125 -2.375 C 6.054688 -4.644531 4.671875 -8.015625 4.671875 -12.484375 C 4.671875 -18.847656 7.34375 -23.367188 12.6875 -26.046875 C 18.039062 -28.722656 24.238281 -30.0625 31.28125 -30.0625 L 38.078125 -30.0625 L 38.078125 -37.875 C 38.078125 -41.394531 37.6875 -44.117188 36.90625 -46.046875 C 36.132812 -47.984375 34.9375 -49.335938 33.3125 -50.109375 C 31.6875 -50.890625 29.484375 -51.28125 26.703125 -51.28125 C 23.523438 -51.28125 21.15625 -50.65625 19.59375 -49.40625 C 18.039062 -48.15625 17.265625 -46.476562 17.265625 -44.375 C 17.265625 -42.414062 18.210938 -41.128906 20.109375 -40.515625 C 20.109375 -38.828125 19.460938 -37.335938 18.171875 -36.046875 C 16.890625 -34.765625 15.367188 -34.125 13.609375 -34.125 C 11.710938 -34.125 10.1875 -34.644531 9.03125 -35.6875 C 7.882812 -36.738281 7.3125 -38.347656 7.3125 -40.515625 C 7.3125 -44.441406 9.273438 -47.585938 13.203125 -49.953125 C 17.128906 -52.328125 22.035156 -53.515625 27.921875 -53.515625 C 41.460938 -53.515625 48.234375 -47.625 48.234375 -35.84375 L 48.234375 -6.796875 C 48.234375 -5.304688 48.554688 -4.171875 49.203125 -3.390625 C 49.847656 -2.617188 50.773438 -2.234375 51.984375 -2.234375 C 53.140625 -2.234375 54.054688 -2.617188 54.734375 -3.390625 C 55.410156 -4.171875 55.75 -5.238281 55.75 -6.59375 L 57.875 -6.59375 C 57.875 -4.226562 57.113281 -2.367188 55.59375 -1.015625 C 54.070312 0.335938 51.957031 1.015625 49.25 1.015625 C 46.132812 1.015625 43.507812 0.117188 41.375 -1.671875 C 39.25 -3.460938 38.148438 -6.253906 38.078125 -10.046875 C 36.453125 -6.597656 33.960938 -3.890625 30.609375 -1.921875 C 27.265625 0.0351562 23.5625 1.015625 19.5 1.015625 Z M 25.078125 -3.453125 C 26.910156 -3.453125 28.789062 -3.992188 30.71875 -5.078125 C 32.644531 -6.160156 34.285156 -7.734375 35.640625 -9.796875 C 36.992188 -11.859375 37.804688 -14.347656 38.078125 -17.265625 L 38.078125 -27.828125 L 31.28125 -27.828125 C 25.726562 -27.828125 21.578125 -26.585938 18.828125 -24.109375 C 16.085938 -21.640625 14.71875 -18.171875 14.71875 -13.703125 C 14.71875 -9.984375 15.597656 -7.34375 17.359375 -5.78125 C 19.117188 -4.226562 21.691406 -3.453125 25.078125 -3.453125 Z M 25.078125 -3.453125 "/></g></g></g><g fill="#ffffff" fill-opacity="1"><g transform="translate(261.308252, 404.008569)"><g><path d="M 2.734375 -2.03125 L 9.84375 -3.046875 L 9.84375 -49.5625 L 2.734375 -50.5625 L 2.734375 -52.59375 L 20 -52.59375 L 20 -41.640625 C 22.507812 -45.296875 25.457031 -48.1875 28.84375 -50.3125 C 32.226562 -52.445312 35.882812 -53.515625 39.8125 -53.515625 C 44.6875 -53.515625 48.523438 -52.296875 51.328125 -49.859375 C 54.140625 -47.421875 55.546875 -43.800781 55.546875 -39 L 55.546875 -3.046875 L 62.65625 -2.03125 L 62.65625 0 L 39.296875 0 L 39.296875 -2.03125 L 45.390625 -3.046875 L 45.390625 -38.796875 C 45.390625 -42.316406 44.675781 -45.039062 43.25 -46.96875 C 41.832031 -48.894531 39.632812 -49.859375 36.65625 -49.859375 C 33.539062 -49.859375 30.546875 -48.722656 27.671875 -46.453125 C 24.796875 -44.191406 22.238281 -41.398438 20 -38.078125 L 20 -3.046875 L 26.09375 -2.03125 L 26.09375 0 L 2.734375 0 Z M 2.734375 -2.03125 "/></g></g></g><g fill="#ffffff" fill-opacity="1"><g transform="translate(325.788982, 404.008569)"><g><path d="M 2.03125 0 L 2.03125 -2.03125 L 9.140625 -3.046875 L 9.140625 -78.1875 L 2.03125 -79.203125 L 2.03125 -81.234375 L 19.296875 -81.234375 L 19.296875 -29.140625 L 42.546875 -48.234375 L 33.71875 -50.5625 L 33.71875 -52.59375 L 52.796875 -52.59375 L 52.796875 -50.5625 L 46.3125 -48.234375 L 29.453125 -34.421875 L 53.203125 -2.9375 L 58.6875 -2.03125 L 58.6875 0 L 34.9375 0 L 34.9375 -2.03125 L 41.03125 -3.046875 L 21.9375 -28.234375 L 19.296875 -26 L 19.296875 -3.046875 L 25.390625 -2.03125 L 25.390625 0 Z M 2.03125 0 "/></g></g></g><g fill="#ffffff" fill-opacity="1"><g transform="translate(383.161591, 404.008569)"><g><path d="M 19.5 1.015625 C 15.164062 1.015625 11.609375 -0.113281 8.828125 -2.375 C 6.054688 -4.644531 4.671875 -8.015625 4.671875 -12.484375 C 4.671875 -18.847656 7.34375 -23.367188 12.6875 -26.046875 C 18.039062 -28.722656 24.238281 -30.0625 31.28125 -30.0625 L 38.078125 -30.0625 L 38.078125 -37.875 C 38.078125 -41.394531 37.6875 -44.117188 36.90625 -46.046875 C 36.132812 -47.984375 34.9375 -49.335938 33.3125 -50.109375 C 31.6875 -50.890625 29.484375 -51.28125 26.703125 -51.28125 C 23.523438 -51.28125 21.15625 -50.65625 19.59375 -49.40625 C 18.039062 -48.15625 17.265625 -46.476562 17.265625 -44.375 C 17.265625 -42.414062 18.210938 -41.128906 20.109375 -40.515625 C 20.109375 -38.828125 19.460938 -37.335938 18.171875 -36.046875 C 16.890625 -34.765625 15.367188 -34.125 13.609375 -34.125 C 11.710938 -34.125 10.1875 -34.644531 9.03125 -35.6875 C 7.882812 -36.738281 7.3125 -38.347656 7.3125 -40.515625 C 7.3125 -44.441406 9.273438 -47.585938 13.203125 -49.953125 C 17.128906 -52.328125 22.035156 -53.515625 27.921875 -53.515625 C 41.460938 -53.515625 48.234375 -47.625 48.234375 -35.84375 L 48.234375 -6.796875 C 48.234375 -5.304688 48.554688 -4.171875 49.203125 -3.390625 C 49.847656 -2.617188 50.773438 -2.234375 51.984375 -2.234375 C 53.140625 -2.234375 54.054688 -2.617188 54.734375 -3.390625 C 55.410156 -4.171875 55.75 -5.238281 55.75 -6.59375 L 57.875 -6.59375 C 57.875 -4.226562 57.113281 -2.367188 55.59375 -1.015625 C 54.070312 0.335938 51.957031 1.015625 49.25 1.015625 C 46.132812 1.015625 43.507812 0.117188 41.375 -1.671875 C 39.25 -3.460938 38.148438 -6.253906 38.078125 -10.046875 C 36.453125 -6.597656 33.960938 -3.890625 30.609375 -1.921875 C 27.265625 0.0351562 23.5625 1.015625 19.5 1.015625 Z M 25.078125 -3.453125 C 26.910156 -3.453125 28.789062 -3.992188 30.71875 -5.078125 C 32.644531 -6.160156 34.285156 -7.734375 35.640625 -9.796875 C 36.992188 -11.859375 37.804688 -14.347656 38.078125 -17.265625 L 38.078125 -27.828125 L 31.28125 -27.828125 C 25.726562 -27.828125 21.578125 -26.585938 18.828125 -24.109375 C 16.085938 -21.640625 14.71875 -18.171875 14.71875 -13.703125 C 14.71875 -9.984375 15.597656 -7.34375 17.359375 -5.78125 C 19.117188 -4.226562 21.691406 -3.453125 25.078125 -3.453125 Z M 25.078125 -3.453125 "/></g></g></g><g fill="#ffffff" fill-opacity="1"><g transform="translate(440.737303, 404.008569)"><g/></g></g><g fill="#ffffff" fill-opacity="1"><g transform="translate(465.006431, 404.008569)"><g><path d="M 26.90625 2.03125 L 5.171875 -49.5625 L -1.421875 -50.5625 L -1.421875 -52.59375 L 23.859375 -52.59375 L 23.859375 -50.5625 L 16.546875 -49.25 L 31.890625 -11.0625 L 45.59375 -47.9375 L 36.65625 -50.46875 L 36.65625 -52.5 L 54.828125 -52.5 L 54.828125 -50.46875 L 48.4375 -48.03125 L 29.75 2.03125 Z M 26.90625 2.03125 "/></g></g></g><g fill="#ffffff" fill-opacity="1"><g transform="translate(518.82499, 404.008569)"><g><path d="M 13.609375 -64.375 C 11.710938 -64.375 10.085938 -65.035156 8.734375 -66.359375 C 7.378906 -67.679688 6.703125 -69.289062 6.703125 -71.1875 C 6.703125 -73.082031 7.359375 -74.671875 8.671875 -75.953125 C 9.992188 -77.242188 11.640625 -77.890625 13.609375 -77.890625 C 15.429688 -77.890625 16.984375 -77.242188 18.265625 -75.953125 C 19.554688 -74.671875 20.203125 -73.082031 20.203125 -71.1875 C 20.203125 -69.289062 19.554688 -67.679688 18.265625 -66.359375 C 16.984375 -65.035156 15.429688 -64.375 13.609375 -64.375 Z M 2.84375 0 L 2.84375 -2.03125 L 9.953125 -3.046875 L 9.953125 -49.453125 L 2.84375 -50.46875 L 2.84375 -52.5 L 20.109375 -52.5 L 20.109375 -3.046875 L 27.21875 -2.03125 L 27.21875 0 Z M 2.84375 0 "/></g></g></g><g fill="#ffffff" fill-opacity="1"><g transform="translate(548.17134, 404.008569)"><g><path d="M 19.5 1.015625 C 15.164062 1.015625 11.609375 -0.113281 8.828125 -2.375 C 6.054688 -4.644531 4.671875 -8.015625 4.671875 -12.484375 C 4.671875 -18.847656 7.34375 -23.367188 12.6875 -26.046875 C 18.039062 -28.722656 24.238281 -30.0625 31.28125 -30.0625 L 38.078125 -30.0625 L 38.078125 -37.875 C 38.078125 -41.394531 37.6875 -44.117188 36.90625 -46.046875 C 36.132812 -47.984375 34.9375 -49.335938 33.3125 -50.109375 C 31.6875 -50.890625 29.484375 -51.28125 26.703125 -51.28125 C 23.523438 -51.28125 21.15625 -50.65625 19.59375 -49.40625 C 18.039062 -48.15625 17.265625 -46.476562 17.265625 -44.375 C 17.265625 -42.414062 18.210938 -41.128906 20.109375 -40.515625 C 20.109375 -38.828125 19.460938 -37.335938 18.171875 -36.046875 C 16.890625 -34.765625 15.367188 -34.125 13.609375 -34.125 C 11.710938 -34.125 10.1875 -34.644531 9.03125 -35.6875 C 7.882812 -36.738281 7.3125 -38.347656 7.3125 -40.515625 C 7.3125 -44.441406 9.273438 -47.585938 13.203125 -49.953125 C 17.128906 -52.328125 22.035156 -53.515625 27.921875 -53.515625 C 41.460938 -53.515625 48.234375 -47.625 48.234375 -35.84375 L 48.234375 -6.796875 C 48.234375 -5.304688 48.554688 -4.171875 49.203125 -3.390625 C 49.847656 -2.617188 50.773438 -2.234375 51.984375 -2.234375 C 53.140625 -2.234375 54.054688 -2.617188 54.734375 -3.390625 C 55.410156 -4.171875 55.75 -5.238281 55.75 -6.59375 L 57.875 -6.59375 C 57.875 -4.226562 57.113281 -2.367188 55.59375 -1.015625 C 54.070312 0.335938 51.957031 1.015625 49.25 1.015625 C 46.132812 1.015625 43.507812 0.117188 41.375 -1.671875 C 39.25 -3.460938 38.148438 -6.253906 38.078125 -10.046875 C 36.453125 -6.597656 33.960938 -3.890625 30.609375 -1.921875 C 27.265625 0.0351562 23.5625 1.015625 19.5 1.015625 Z M 25.078125 -3.453125 C 26.910156 -3.453125 28.789062 -3.992188 30.71875 -5.078125 C 32.644531 -6.160156 34.285156 -7.734375 35.640625 -9.796875 C 36.992188 -11.859375 37.804688 -14.347656 38.078125 -17.265625 L 38.078125 -27.828125 L 31.28125 -27.828125 C 25.726562 -27.828125 21.578125 -26.585938 18.828125 -24.109375 C 16.085938 -21.640625 14.71875 -18.171875 14.71875 -13.703125 C 14.71875 -9.984375 15.597656 -7.34375 17.359375 -5.78125 C 19.117188 -4.226562 21.691406 -3.453125 25.078125 -3.453125 Z M 25.078125 -3.453125 "/></g></g></g><g fill="#ffffff" fill-opacity="1"><g transform="translate(605.747053, 404.008569)"><g><path d="M 54.828125 -57.375 C 54.828125 -54.726562 53.847656 -52.457031 51.890625 -50.5625 C 49.929688 -48.675781 46.816406 -47.460938 42.546875 -46.921875 C 44.304688 -44.347656 45.1875 -40.828125 45.1875 -36.359375 C 45.1875 -31.078125 43.304688 -26.910156 39.546875 -23.859375 C 35.796875 -20.816406 31.039062 -19.296875 25.28125 -19.296875 C 22.914062 -19.296875 20.75 -19.5 18.78125 -19.90625 C 14.445312 -19.632812 12.28125 -17.941406 12.28125 -14.828125 C 12.28125 -13.066406 13.007812 -11.78125 14.46875 -10.96875 C 15.925781 -10.15625 18.242188 -9.75 21.421875 -9.75 L 32.796875 -9.75 C 38.285156 -9.75 42.363281 -8.628906 45.03125 -6.390625 C 47.707031 -4.160156 49.046875 -0.335938 49.046875 5.078125 C 49.046875 8.867188 48.082031 12.351562 46.15625 15.53125 C 44.226562 18.71875 41.4375 21.238281 37.78125 23.09375 C 34.125 24.957031 29.753906 25.890625 24.671875 25.890625 C 17.023438 25.890625 11.390625 24.738281 7.765625 22.4375 C 4.140625 20.132812 2.328125 17.085938 2.328125 13.296875 C 2.328125 10.992188 3.207031 8.960938 4.96875 7.203125 C 6.726562 5.441406 9.132812 4.5625 12.1875 4.5625 C 12.789062 4.5625 14.039062 4.695312 15.9375 4.96875 C 13.84375 7.207031 12.796875 9.847656 12.796875 12.890625 C 12.796875 15.804688 13.8125 18.347656 15.84375 20.515625 C 17.875 22.679688 21.191406 23.765625 25.796875 23.765625 C 29.785156 23.765625 33.351562 23 36.5 21.46875 C 39.65625 19.945312 42.078125 17.96875 43.765625 15.53125 C 45.460938 13.09375 46.3125 10.585938 46.3125 8.015625 C 46.3125 5.171875 45.394531 3.125 43.5625 1.875 C 41.738281 0.625 38.488281 0 33.8125 0 L 21.421875 0 C 16.679688 0 13.109375 -0.925781 10.703125 -2.78125 C 8.304688 -4.644531 7.109375 -7.40625 7.109375 -11.0625 C 7.109375 -13.5 7.800781 -15.648438 9.1875 -17.515625 C 10.570312 -19.378906 12.347656 -20.582031 14.515625 -21.125 C 8.628906 -23.625 5.6875 -28.703125 5.6875 -36.359375 C 5.6875 -41.703125 7.546875 -45.894531 11.265625 -48.9375 C 14.992188 -51.988281 19.664062 -53.515625 25.28125 -53.515625 C 32.394531 -53.515625 37.539062 -52.023438 40.71875 -49.046875 C 42.613281 -49.390625 44.035156 -50.015625 44.984375 -50.921875 C 45.929688 -51.835938 46.40625 -52.867188 46.40625 -54.015625 C 46.40625 -55.097656 46.097656 -55.925781 45.484375 -56.5 C 44.878906 -57.082031 44.171875 -57.375 43.359375 -57.375 C 43.359375 -58.863281 43.914062 -60.164062 45.03125 -61.28125 C 46.15625 -62.394531 47.492188 -62.953125 49.046875 -62.953125 C 50.734375 -62.953125 52.117188 -62.441406 53.203125 -61.421875 C 54.285156 -60.410156 54.828125 -59.0625 54.828125 -57.375 Z M 35.640625 -38.890625 C 35.640625 -43.023438 34.773438 -46.207031 33.046875 -48.4375 C 31.328125 -50.664062 28.738281 -51.78125 25.28125 -51.78125 C 18.582031 -51.78125 15.234375 -47.484375 15.234375 -38.890625 L 15.234375 -33.921875 C 15.234375 -29.921875 16.0625 -26.769531 17.71875 -24.46875 C 19.375 -22.164062 21.894531 -21.015625 25.28125 -21.015625 C 28.738281 -21.015625 31.328125 -22.164062 33.046875 -24.46875 C 34.773438 -26.769531 35.640625 -29.921875 35.640625 -33.921875 Z M 35.640625 -38.890625 "/></g></g></g><g fill="#ffffff" fill-opacity="1"><g transform="translate(660.073337, 404.008569)"><g><path d="M 54.828125 -57.375 C 54.828125 -54.726562 53.847656 -52.457031 51.890625 -50.5625 C 49.929688 -48.675781 46.816406 -47.460938 42.546875 -46.921875 C 44.304688 -44.347656 45.1875 -40.828125 45.1875 -36.359375 C 45.1875 -31.078125 43.304688 -26.910156 39.546875 -23.859375 C 35.796875 -20.816406 31.039062 -19.296875 25.28125 -19.296875 C 22.914062 -19.296875 20.75 -19.5 18.78125 -19.90625 C 14.445312 -19.632812 12.28125 -17.941406 12.28125 -14.828125 C 12.28125 -13.066406 13.007812 -11.78125 14.46875 -10.96875 C 15.925781 -10.15625 18.242188 -9.75 21.421875 -9.75 L 32.796875 -9.75 C 38.285156 -9.75 42.363281 -8.628906 45.03125 -6.390625 C 47.707031 -4.160156 49.046875 -0.335938 49.046875 5.078125 C 49.046875 8.867188 48.082031 12.351562 46.15625 15.53125 C 44.226562 18.71875 41.4375 21.238281 37.78125 23.09375 C 34.125 24.957031 29.753906 25.890625 24.671875 25.890625 C 17.023438 25.890625 11.390625 24.738281 7.765625 22.4375 C 4.140625 20.132812 2.328125 17.085938 2.328125 13.296875 C 2.328125 10.992188 3.207031 8.960938 4.96875 7.203125 C 6.726562 5.441406 9.132812 4.5625 12.1875 4.5625 C 12.789062 4.5625 14.039062 4.695312 15.9375 4.96875 C 13.84375 7.207031 12.796875 9.847656 12.796875 12.890625 C 12.796875 15.804688 13.8125 18.347656 15.84375 20.515625 C 17.875 22.679688 21.191406 23.765625 25.796875 23.765625 C 29.785156 23.765625 33.351562 23 36.5 21.46875 C 39.65625 19.945312 42.078125 17.96875 43.765625 15.53125 C 45.460938 13.09375 46.3125 10.585938 46.3125 8.015625 C 46.3125 5.171875 45.394531 3.125 43.5625 1.875 C 41.738281 0.625 38.488281 0 33.8125 0 L 21.421875 0 C 16.679688 0 13.109375 -0.925781 10.703125 -2.78125 C 8.304688 -4.644531 7.109375 -7.40625 7.109375 -11.0625 C 7.109375 -13.5 7.800781 -15.648438 9.1875 -17.515625 C 10.570312 -19.378906 12.347656 -20.582031 14.515625 -21.125 C 8.628906 -23.625 5.6875 -28.703125 5.6875 -36.359375 C 5.6875 -41.703125 7.546875 -45.894531 11.265625 -48.9375 C 14.992188 -51.988281 19.664062 -53.515625 25.28125 -53.515625 C 32.394531 -53.515625 37.539062 -52.023438 40.71875 -49.046875 C 42.613281 -49.390625 44.035156 -50.015625 44.984375 -50.921875 C 45.929688 -51.835938 46.40625 -52.867188 46.40625 -54.015625 C 46.40625 -55.097656 46.097656 -55.925781 45.484375 -56.5 C 44.878906 -57.082031 44.171875 -57.375 43.359375 -57.375 C 43.359375 -58.863281 43.914062 -60.164062 45.03125 -61.28125 C 46.15625 -62.394531 47.492188 -62.953125 49.046875 -62.953125 C 50.734375 -62.953125 52.117188 -62.441406 53.203125 -61.421875 C 54.285156 -60.410156 54.828125 -59.0625 54.828125 -57.375 Z M 35.640625 -38.890625 C 35.640625 -43.023438 34.773438 -46.207031 33.046875 -48.4375 C 31.328125 -50.664062 28.738281 -51.78125 25.28125 -51.78125 C 18.582031 -51.78125 15.234375 -47.484375 15.234375 -38.890625 L 15.234375 -33.921875 C 15.234375 -29.921875 16.0625 -26.769531 17.71875 -24.46875 C 19.375 -22.164062 21.894531 -21.015625 25.28125 -21.015625 C 28.738281 -21.015625 31.328125 -22.164062 33.046875 -24.46875 C 34.773438 -26.769531 35.640625 -29.921875 35.640625 -33.921875 Z M 35.640625 -38.890625 "/></g></g></g><g fill="#ffffff" fill-opacity="1"><g transform="translate(714.399621, 404.008569)"><g><path d="M 13.609375 -64.375 C 11.710938 -64.375 10.085938 -65.035156 8.734375 -66.359375 C 7.378906 -67.679688 6.703125 -69.289062 6.703125 -71.1875 C 6.703125 -73.082031 7.359375 -74.671875 8.671875 -75.953125 C 9.992188 -77.242188 11.640625 -77.890625 13.609375 -77.890625 C 15.429688 -77.890625 16.984375 -77.242188 18.265625 -75.953125 C 19.554688 -74.671875 20.203125 -73.082031 20.203125 -71.1875 C 20.203125 -69.289062 19.554688 -67.679688 18.265625 -66.359375 C 16.984375 -65.035156 15.429688 -64.375 13.609375 -64.375 Z M 2.84375 0 L 2.84375 -2.03125 L 9.953125 -3.046875 L 9.953125 -49.453125 L 2.84375 -50.46875 L 2.84375 -52.5 L 20.109375 -52.5 L 20.109375 -3.046875 L 27.21875 -2.03125 L 27.21875 0 Z M 2.84375 0 "/></g></g></g></svg>